<mxfile host="65bd71144e">
    <diagram name="Page-1" id="42789a77-a242-8287-6e28-9cd8cfd52e62">
        <mxGraphModel dx="1198" dy="534" grid="1" gridSize="10" guides="1" tooltips="1" connect="1" arrows="1" fold="1" page="1" pageScale="1" pageWidth="1100" pageHeight="850" background="none" math="0" shadow="0">
            <root>
                <mxCell id="0"/>
                <mxCell id="1" parent="0"/>
                <mxCell id="bDW-R8JKIX6z7XVOLLpX-1" value="" style="verticalLabelPosition=bottom;verticalAlign=top;html=1;shadow=0;dashed=0;strokeWidth=1;shape=mxgraph.android.phone2;strokeColor=#c0c0c0;" parent="1" vertex="1">
                    <mxGeometry x="10" y="10" width="200" height="380" as="geometry"/>
                </mxCell>
                <mxCell id="bDW-R8JKIX6z7XVOLLpX-2" value="" style="strokeWidth=1;html=1;shadow=0;dashed=0;shape=mxgraph.android.action_bar;fillColor=#1A1A1A;strokeColor=#c0c0c0;strokeWidth=2;fontColor=#FFFFFF;whiteSpace=wrap;" parent="1" vertex="1">
                    <mxGeometry x="17.5" y="40" width="185" height="30" as="geometry"/>
                </mxCell>
                <mxCell id="bDW-R8JKIX6z7XVOLLpX-3" value="" style="shape=image;verticalLabelPosition=bottom;labelBackgroundColor=default;verticalAlign=top;aspect=fixed;imageAspect=0;image=data:image/jpeg,/9j/4AAQSkZJRgABAQEBLAEsAAD/4QBWRXhpZgAATU0AKgAAAAgABAEaAAUAAAABAAAAPgEbAAUAAAABAAAARgEoAAMAAAABAAIAAAITAAMAAAABAAEAAAAAAAAAAAEsAAAAAQAAASwAAAAB/+0ALFBob3Rvc2hvcCAzLjAAOEJJTQQEAAAAAAAPHAFaAAMbJUccAQAAAgAEAP/hDW5odHRwOi8vbnMuYWRvYmUuY29tL3hhcC8xLjAvADw/eHBhY2tldCBiZWdpbj0n77u/JyBpZD0nVzVNME1wQ2VoaUh6cmVTek5UY3prYzlkJz8+Cjx4OnhtcG1ldGEgeG1sbnM6eD0nYWRvYmU6bnM6bWV0YS8nIHg6eG1wdGs9J0ltYWdlOjpFeGlmVG9vbCAxMS44OCc+CjxyZGY6UkRGIHhtbG5zOnJkZj0naHR0cDovL3d3dy53My5vcmcvMTk5OS8wMi8yMi1yZGYtc3ludGF4LW5zIyc+CgogPHJkZjpEZXNjcmlwdGlvbiByZGY6YWJvdXQ9JycKICB4bWxuczp0aWZmPSdodHRwOi8vbnMuYWRvYmUuY29tL3RpZmYvMS4wLyc+CiAgPHRpZmY6UmVzb2x1dGlvblVuaXQ+MjwvdGlmZjpSZXNvbHV0aW9uVW5pdD4KICA8dGlmZjpYUmVzb2x1dGlvbj4zMDAvMTwvdGlmZjpYUmVzb2x1dGlvbj4KICA8dGlmZjpZUmVzb2x1dGlvbj4zMDAvMTwvdGlmZjpZUmVzb2x1dGlvbj4KIDwvcmRmOkRlc2NyaXB0aW9uPgoKIDxyZGY6RGVzY3JpcHRpb24gcmRmOmFib3V0PScnCiAgeG1sbnM6eG1wPSdodHRwOi8vbnMuYWRvYmUuY29tL3hhcC8xLjAvJz4KICA8eG1wOkNyZWF0b3JUb29sPkFkb2JlIFN0b2NrIFBsYXRmb3JtPC94bXA6Q3JlYXRvclRvb2w+CiA8L3JkZjpEZXNjcmlwdGlvbj4KCiA8cmRmOkRlc2NyaXB0aW9uIHJkZjphYm91dD0nJwogIHhtbG5zOnhtcE1NPSdodHRwOi8vbnMuYWRvYmUuY29tL3hhcC8xLjAvbW0vJz4KICA8eG1wTU06RG9jdW1lbnRJRD54bXAuaWlkOjEyOTRiNTcyLWMyYmUtNGE3ZC1hYTk0LTBkYjE4ODM3YjNkMjwveG1wTU06RG9jdW1lbnRJRD4KICA8eG1wTU06SW5zdGFuY2VJRD5hZG9iZTpkb2NpZDpzdG9jazowM2MyNDQ4YS1kMjg5LTQzZTktYWYzNC0yZWQ5N2I5NjExZTc8L3htcE1NOkluc3RhbmNlSUQ+CiAgPHhtcE1NOk9yaWdpbmFsRG9jdW1lbnRJRD5hZG9iZTpkb2NpZDpzdG9jazo1MTU5MTE2NTc8L3htcE1NOk9yaWdpbmFsRG9jdW1lbnRJRD4KIDwvcmRmOkRlc2NyaXB0aW9uPgo8L3JkZjpSREY+CjwveDp4bXBtZXRhPgogICAgICAgICAgICAgICAgICAgICAgICAgICAgICAgICAgICAgICAgICAgICAgICAgICAgICAgICAgICAgICAgICAgICAgICAgICAgICAgICAgICAgICAgICAgICAgICAgICAgCiAgICAgICAgICAgICAgICAgICAgICAgICAgICAgICAgICAgICAgICAgICAgICAgICAgICAgICAgICAgICAgICAgICAgICAgICAgICAgICAgICAgICAgICAgICAgICAgICAgICAKICAgICAgICAgICAgICAgICAgICAgICAgICAgICAgICAgICAgICAgICAgICAgICAgICAgICAgICAgICAgICAgICAgICAgICAgICAgICAgICAgICAgICAgICAgICAgICAgICAgIAogICAgICAgICAgICAgICAgICAgICAgICAgICAgICAgICAgICAgICAgICAgICAgICAgICAgICAgICAgICAgICAgICAgICAgICAgICAgICAgICAgICAgICAgICAgICAgICAgICAgCiAgICAgICAgICAgICAgICAgICAgICAgICAgICAgICAgICAgICAgICAgICAgICAgICAgICAgICAgICAgICAgICAgICAgICAgICAgICAgICAgICAgICAgICAgICAgICAgICAgICAKICAgICAgICAgICAgICAgICAgICAgICAgICAgICAgICAgICAgICAgICAgICAgICAgICAgICAgICAgICAgICAgICAgICAgICAgICAgICAgICAgICAgICAgICAgICAgICAgICAgIAogICAgICAgICAgICAgICAgICAgICAgICAgICAgICAgICAgICAgICAgICAgICAgICAgICAgICAgICAgICAgICAgICAgICAgICAgICAgICAgICAgICAgICAgICAgICAgICAgICAgCiAgICAgICAgICAgICAgICAgICAgICAgICAgICAgICAgICAgICAgICAgICAgICAgICAgICAgICAgICAgICAgICAgICAgICAgICAgICAgICAgICAgICAgICAgICAgICAgICAgICAKICAgICAgICAgICAgICAgICAgICAgICAgICAgICAgICAgICAgICAgICAgICAgICAgICAgICAgICAgICAgICAgICAgICAgICAgICAgICAgICAgICAgICAgICAgICAgICAgICAgIAogICAgICAgICAgICAgICAgICAgICAgICAgICAgICAgICAgICAgICAgICAgICAgICAgICAgICAgICAgICAgICAgICAgICAgICAgICAgICAgICAgICAgICAgICAgICAgICAgICAgCiAgICAgICAgICAgICAgICAgICAgICAgICAgICAgICAgICAgICAgICAgICAgICAgICAgICAgICAgICAgICAgICAgICAgICAgICAgICAgICAgICAgICAgICAgICAgICAgICAgICAKICAgICAgICAgICAgICAgICAgICAgICAgICAgICAgICAgICAgICAgICAgICAgICAgICAgICAgICAgICAgICAgICAgICAgICAgICAgICAgICAgICAgICAgICAgICAgICAgICAgIAogICAgICAgICAgICAgICAgICAgICAgICAgICAgICAgICAgICAgICAgICAgICAgICAgICAgICAgICAgICAgICAgICAgICAgICAgICAgICAgICAgICAgICAgICAgICAgICAgICAgCiAgICAgICAgICAgICAgICAgICAgICAgICAgICAgICAgICAgICAgICAgICAgICAgICAgICAgICAgICAgICAgICAgICAgICAgICAgICAgICAgICAgICAgICAgICAgICAgICAgICAKICAgICAgICAgICAgICAgICAgICAgICAgICAgICAgICAgICAgICAgICAgICAgICAgICAgICAgICAgICAgICAgICAgICAgICAgICAgICAgICAgICAgICAgICAgICAgICAgICAgIAogICAgICAgICAgICAgICAgICAgICAgICAgICAgICAgICAgICAgICAgICAgICAgICAgICAgICAgICAgICAgICAgICAgICAgICAgICAgICAgICAgICAgICAgICAgICAgICAgICAgCiAgICAgICAgICAgICAgICAgICAgICAgICAgICAgICAgICAgICAgICAgICAgICAgICAgICAgICAgICAgICAgICAgICAgICAgICAgICAgICAgICAgICAgICAgICAgICAgICAgICAKICAgICAgICAgICAgICAgICAgICAgICAgICAgICAgICAgICAgICAgICAgICAgICAgICAgICAgICAgICAgICAgICAgICAgICAgICAgICAgICAgICAgICAgICAgICAgICAgICAgIAogICAgICAgICAgICAgICAgICAgICAgICAgICAgICAgICAgICAgICAgICAgICAgICAgICAgICAgICAgICAgICAgICAgICAgICAgICAgICAgICAgICAgICAgICAgICAgICAgICAgCiAgICAgICAgICAgICAgICAgICAgICAgICAgICAgICAgICAgICAgICAgICAgICAgICAgICAgICAgICAgICAgICAgICAgICAgICAgICAgICAgICAgICAgICAgICAgICAgICAgICAKICAgICAgICAgICAgICAgICAgICAgICAgICAgICAgICAgICAgICAgICAgICAgICAgICAgICAgICAgICAgICAgICAgICAgICAgICAgICAgICAgICAgICAgICAgICAgICAgICAgIAogICAgICAgICAgICAgICAgICAgICAgICAgICAgICAgICAgICAgICAgICAgICAgICAgICAgICAgICAgICAgICAgICAgICAgICAgICAgICAgICAgICAgICAgICAgICAgICAgICAgCiAgICAgICAgICAgICAgICAgICAgICAgICAgICAgICAgICAgICAgICAgICAgICAgICAgICAgICAgICAgICAgICAgICAgICAgICAgICAgICAgICAgICAgICAgICAgICAgICAgICAKICAgICAgICAgICAgICAgICAgICAgICAgICAgICAgICAgICAgICAgICAgICAgICAgICAgICAgICAgICAgICAgICAgICAgICAgICAgICAgICAgICAgICAgICAgICAgICAgICAgIAo8P3hwYWNrZXQgZW5kPSd3Jz8+/9sAQwAFAwQEBAMFBAQEBQUFBgcMCAcHBwcPCwsJDBEPEhIRDxERExYcFxMUGhURERghGBodHR8fHxMXIiQiHiQcHh8e/8AACwgBaALQAQERAP/EAB0AAQACAgMBAQAAAAAAAAAAAAAHCAUGAgMEAQn/xABTEAABAwMBBQQGBgUIBwcDBQABAAIDBAURBgcSITFBCBNRYRQiMnGBkRVCUmKhsRYjM3KSJENTY4KissElNFSEwtHSNXN0lKPh8Bc2s0RGw+Lx/9oACAEBAAA/ALloiIiIiIiIiIiIiIiIiIiIiIiIiIiIiIiIiIiIiIiIiIiIiIiIiIiIiIiIiIiIiIiIiIiIiIiIiIiIiIiIiIiIiIuEsjIo3SSOaxjQS5zjgADmSfBQlrXtCWa16lprfY6UXWhimAr6wEhpZxBEI+sRz3jwOMDOcqZrVX0d0ttPcbfUR1FJUxtkhlYcte0jIIXqRERERERERERERERERERERERERERERERERERERERERERERERERERERERERYfV2prLpWzyXW+V0dJTM4NzxdI7o1jRxc4+AVT9ru169a3kkt9J3lssWeFK13rz+cpHP90cB1yo0U19mfaX9A3Jmkr1UYtVZJ/JJXnhTTOPsk9GPPyd7yrUIiIiIiIiIiIiIiIiIiIiIiIiIiIiIiIiIiIiIiIiIiIiIiIiIiIiIiIiZUc7W9rVj0NC+jj3bje3NzHRxv4R55Old9UeXM9B1VTdZ6rvmr7w+6X2tdUTcRGwerHC37LG/VH4nqSsIvTRUFbWx1UlHSTVDKSEz1Do2FwijBAL3eAyQvMrWdmvaX+kdqGmL1Ub14oY/wBTK93GqhHDPm9vAHxGD4qZ0RERERERERERERERERERERERERERERERERERERERERERERERERERERFwnljghfNNIyONjS5z3nAaBzJJ5BV52w7eh+usuhZQTxZNdcZA8RCDz/fPDwB5qvE8ss80k88r5ZZHF73vcXOc48ySeJPmuCyGnLNctQXqls9ppnVNbVP3I2Dl5kno0DiT0Cufst2fWrROlDaWMjqqmpbm4VDmf6w4jBGD9QAkBvh5kqsW3TZ9JoXVJFIxzrLXEyUL+e59qInxb08W48CtIs1yrbRdaa6W2odT1lLIJYZW82uH5joR1BIV19kmuqLXelI7nAGQ1kWIq6mByYpcdPunmD4eYK3FERERERERERERERERERERERERERERERERERERERERERERERERERERFhNZ6qsekbM+6X2tZTQDgxvN8rvssbzcf/hwqm7W9rV81zK+ii37bYwfVo2O9abwMrh7X7o9UeZ4qOUXbR009XVRUlLDJPUTPEcUUbcue4nAaB1JVw9hOzKDQ1l9Lr2xzX6sYPSZBxELeYiYfAdT1PkApLWvbQtJ2/WWlqux3EbrZRvQygZdDKM7rx5g/MEjqqP6nslx05f6yyXWHuqykk3Hjo7wc3xaRgg+BWY2Xa0r9Daqhu9IHS07sR1lMDwnizxH7w5tPj5Eq7en7tQX2zUt3tlQ2oo6qMSRSN6g+PgRyI6EFe5ERERERERERERERERERERERERERERERERERERERERERY+2Xq1XOpraa33CmqpqGXuaqOKQOdC/Gd1w6FZBERERERERRptd2vWTREb6Cm3LlfC31aRj/Vh8HSuHsj7vtHy5qp+r9T3vVd4fdb7XPqqg8GDkyJv2WN5NH59crDog48Fajs57Kv0dpY9U6gpx9M1Ef8mgeONJG4cz4SOHP7I4eKmsFEURdpDZx+lVg+nrTBvXq3Rk7rRxqYRklnm4c2/EdVUlS72cdpX6KXr6AvE5Fkr5BuvceFLMeG/5Mdyd4HB8VbVpBGQvqIiIiIiIiIiIiIiIiIiIiIiIiIiIiIiIiIiIiIiIiKDu0JteFjjn0rpipBuzxu1lWw59EB+q0/0h/u+/lXPSuo7zpi9x3iy1slNVsPF3tNkBOS14PtA9Qffz4q22x/axZ9dUzaOXct98jZmWjc7hIBzfET7TfLmOvipHREREREXXUzw01PJUVEscUUbS573uDWtaOZJPIKum2Hb0+XvrLoWYsZxbLdMcXeIhB5fvn4Dqq+ySPlkfLK90kj3Fz3uJJcTzJJ4k+a4oi3nZNddG6buX6Ramiq7lWUzs0NvghBaHj+dkc4hvD6o48eJ6KQrr2iNTXWrjt+ltNUsE1Q8RwCZzqiV7icABrd0ZPxU6bPLfqSisbZdWXY3C71GJJwxrWwweEcYaAMDqeZPlhbIiHkqp9pnZz+j95OqrRBu2q4S/ymNg4U856+TX8/J2R1Chj38VZ3sx7SzdaJmjL3UF1wpo/wCQTPdxniaPYJ6uaOXi33FTsiIiIiIiIiIiIiIiIiIiIiIiIiIiIiIiIiIiIiIiIoX7QO1xumoZdNacna69yNxPO3iKNp//AJCOQ6cz0Cqs975HufI9z3uJc5zjkuJ4kknmcrZBoXUZ0B+mwoibT35jLhnfDeXe4/o971c+PlxWvUtRPSVUdVSzSQTxPD45I3FrmOHIgjiCrL7FNuUF07iwaymjp7gcMguBw2OoPQP6Mf5+yfI853BzyRERERYHW+rrFo+zuud9rGwR8RFGOMkzvssbzcfwHXCqZtZ2rX3Xc7qXLrfZWuzHQxuzv+DpSPaPl7I8+aj1EREAJIABJPAADOVavs67Kv0ao2anv8A+m6iP9RC8caONw/8AyOHPwHDxU0IiLw361UN7s9XabnA2oo6uIxSxu6g/keoPQ4VIdpuja/Q+rKiy1m9JD+0pKgjAnhJ4O945EdCPMLX6CrqaCugrqKd9PU08jZIZWHDmOByCFdHYttApteaXbUPLIrrS4jr4B0d0e37rsZHgcjot7RERERERERERERERERERERERERERERERERERERERRBt92sx6SpX2GxTMkv8AMz13jDhRsP1j4vP1W/E9M1OnllnmknnkfLLI4ve97i5z3E5JJPMk9VumxnQVTrzVjKNwfHa6XEtwnbwwzPBgP2nch4DJ6K6MFuoYbU21xUsLaFkPcNp90bgjxu7mPDHDCqLt52YzaIvH0hbI3yafrJMQO5+jPP8ANOPh9k9Rw5jjGPAgg8ipo2K7bKzTnc2PVMk1bZxhkVTxfNSjoD1eweHMdMjgrRW2upLlQQ11BUxVNLOwPilicHNe09QQvSiIii/a9ths2i2SW2g7u533HCna79XB5ykcv3RxPlzVUtV6jvOqLxJdb5XSVdU/gCeDY2/ZY3k1vkPjlYlEREVh+zXsp3jT611HTcOElspZG/KdwP8AdH9rwVjAiLwXC5xUNdRwVPqR1jzDHITw73GWtP7wBx5jHUL3otE206Cp9d6TfSxhjLrS5loJndH9WE/ZdyPhwPRUsrKaoo6uakqoXwVED3RyxvGHMcDgg+YKzmzzVty0XqinvltcXFnqTwE4bPEfaYflkHoQCrvaTv8AbdTafpL3aZxNSVTN5p6tPItcOjgeBHiFlERERERERERERERERERERERERERERERERERERERRTt42rU+iqB1ptD459QVEeWD2m0jD/OPHj9lvXmeHOo9XU1FZVTVdXPJPUTPMkssjt5z3E5JJPMlemwWmvvl5pbRa4DPWVcgjiYOpPU+AAySegBV3dmGjaDRGk6ezUYbJL+0qqjGDPKfacfLoB0AC2heC/wBot99s9TabpTMqaOqjLJY3ciP8iOYPQqlu1vQNw0FqR1FPvz2+cl9DVkcJWDm0+D29R7jyK01b3sn2nXvQVduQF1baJX5qKB7sDzdGfqO/A9fEW70RqyyawsrLrY6wTwn1ZGEYkhd9l7eh/PplZ1F1VdTT0lNJU1U8cEETS+SSRwa1jRzJJ4AKt+2HbzNV99ZdDSvhp+LZbpjD3+IhB9kffPHwA5qAnuc97nvc5znEuc5xySTzJPUr4iIiKZOzvsrOqK1mpb9B/oOmf+oieOFZID/+Np5+J4csq1zGhrQ1oAAGAAvqIsRrGyM1DputtD5XQunj/UzNOHQytO9HID4tcGn4LAbIdYv1TYpqe5tbBf7VKaS604GN2VpI3wPsuwSPiOi3ZOir52pdnPfQv1zZ4P1sbQLpEwe0wcBNjxHAO8sHoVW9Sf2ftpD9FX82+5TO+gbg8CfPEU8nISjy5B3lx6K4UT2SRiRj2uY4Za5pyCPELkiIiIiIiIiIiIiIiIiIiIiIiIiIiIiIiIiIiIox25bU6TQ9sNBbzFUX+pZmCI8WwNPDvXjw8G9T5ZVQbhWVVwrp6+uqJamqqHmSaaR2XPceZJXR5+Ctb2aNm/6OWb9JrxT7t3uEY7mN7fWpoDxA8nO4E+AwPFTMiLAa90natY6aqLJdY8xyetFK0evDIPZe3zH4jI6qlGutLXXR+pKix3aMCWI70crR6k8Z9mRvkccuhyDyWCWb0Xqq96QvTLtY6x1PMMNkYeMczfsPb1H4joQrdbJNqFk15Q91GRRXiJmaihe7J83MP12efMdfPO671lYNGWd1xvlYImnIhhZ60s7vssb1PnyHUhVK2rbUr9rupdBK40NnY7MVBG/IOOTpD9d34DoOq0JERERbPspsFFqfaFaLFcXyMpKqYiXuzhzmtaXboPTOMZ81eW30dNQ0UNHRwRwU0DGxxRMbhrGgYAA8F3oiIq/bYZa3Zntct20C1xPdb7s3uLnA3gJXNxvD3loDh95h8Sp1slzorxaaa6W6dlRSVUTZYZG8nNPL/wDxexcJoo5onxSsbJG9pa9rhkOB4EEdQqZ7d9nsmhtUl1HG42SvJkon/wBGeboSfFvTxbjwKjtWO7L+0vvo4tDXyo/WMb/ouZ7vaaOJgJ8QOLfLh0CsKiIiIiIiIiIiIiIiIiIiIiIiIiIiIiIiIiIiKOdtm06i0HaO4pzHU3yqYfRaYnIYOXeyeDR0H1jwHUinl2uNbdrlUXK5VUlVWVLzJNLIcue4/l4AcgOC8qmLs1bOP0lvX6S3eDes9ulHdMe3hUzjiB5tbzPicDxVsQiIi0na/s+t+vdOOpJNyC5U+X0NUR+zf9l3ix3Ij48wqX3y1V9ku9VabpTPpq2lkMcsTuh8vEEYIPUEFeJd9urKu310NdQ1MtLVQPD4ponFr2OHUEL2alv131HdZLpfK+auq5BgySHkPstA4NHkOCxiIiIiLddhUvdbX9Mu8azc+bHhXeb7IRERFqW17SjdY6BuNma0GqLO+pHH6szOLPnxb7nFQZ2YNoL7Ndzoq9SmOjq5T6GZP5ioz60Z8A459zverQItf2gaVt+sdLVdiuLcMmG9FKBl0Mg9l48wfmMjqqP6osdx03f6yyXWHuqukk3Hgey4dHN8WkYI96x9PNLTzxzwSvimieHxyMOHMcDkEHoQQrk7CNo0WutN91WPjZe6FrWVkY4d4OQlaPB3XwOR4KR0RERERERERERERERERERERERERERERERERFoW2TaTbtA2TPqVV4qWkUdJnn07x/UMH4ngPKm19u1xvl3qbtdqp9VW1L9+WV/U9AB0AHAAcgvEtm2Z6Or9b6rp7LRb0cZ/WVVQBkQRA8Xe/oB1JHmrvaetFBYbLSWe2QNgo6SMRxMHQDqfEnmT1JXvRERFFm3zZhDrW0G6WuNkeoKNn6o8hUsHHunHx+yeh4ciqhTRSwTSQTxviljcWPY9uHMcDggjoQVwREREWc0PpW8awv8AFZrLT95M71pJHcI4GZwXvPQD5k8ApY247KbXo3Zlaay1NdNU0lXuXCqcPXn7wYDj4NDmgAdN7qclQWto2SS9ztR0xJ4XSAfN2P8ANXrHJEREToqfdpbSh01tGkuNIwx0V3Bq4i3gGSg/rAPA72Hf2vJTp2fdoQ1ppf0S4TA3u3NbHVZPGZvJso9/I+DgfEKTUUSdo7Zx+lmn/pu0wb17tsZLWtHrVMIyTH5uHEt+I6qo6zOitSXLSepKW+2qTdqKd3rMJ9WVh9qN3kR8uB6K72htT23V2maW+2uTMM7cOYT60Tx7THeYP/Pqs4iIiIiIiIiIiIiIiIiIiIiIiIiIiIiIiIi0ja5tEtmgrCaifcqblOCKKjDsGR32neDB1PwHFU01Je7nqK91N5vFU6prKl28954ADo1o6NHIDoscu6ipaitrIaOkhfPUTyNjiiYMue4nAA95V09iugKfQmk2UrwyS61WJa+cdX9GA/ZbyHjxPVb0uiuq6ahpX1VXPHBBGMvkkdgDpzXc0hzQRnBGeIwvqIi1zaLq+2aK0xUXq5O3t31IIGnD55T7LB/megyVSHU96rdRagrr3cSw1VZKZJNxu60dAAPAAAePDisavRbqGsuVdFQ2+knq6qU4jhhYXvcfIBSLXbN6fRWnWX7aBUBtTPwobHTSjvZ3/wBZIPYYPrbuT0zkqNqiXvp5Je7ii33E7kTd1jfIDoAutFsWz7Rt51tfmWmzw8sOqKh4Pd07PtOP5DmT8SLl7OdFWbRFgbarTES52HVNS8DvKh/2nH8hyAXLafYhqTZ/erKG70lRSP7rh/ON9Zn94BUQ49Rg9R4LN6Bl7jXen5s43LpTH/1Wq/AREREUddoXSX6V7OasU8W/cLd/LKXA4uLQd9n9puR78KpugtUV+kNUUd/trsvgdiSInDZoj7TD5EfI4PRXk0pfLfqTT9He7XL3tJVxh7D1Hi0joQcgjxCyaHkqrdprZz9A3d2rLRAG2uvl/lUbBwp5z18mvPydnxChVSHsM2iS6E1Lirc99krXBlbGOPdnkJmjxb18R7grmUs8NTTR1FPKyWGVgfG9hy1zSMgg9QQuxEREREREREREREREREREREREREREREREWn7VNfWrQen3V9YRPWS5bR0jXYdM/wDyaOrunvwFTHVmobrqe/VF5vNSZ6uc8ejWNHJjR0aOg/zysUisn2W9m/otOzXF5p/5RMwi2RPHGOM8DMR4u5N8G8eqsAOAWh7T9qenNDQuhqZfTrqW5joIHDf8i88mN8zx8AVqmyKDUm0O6R691i/ctlPITZbYwEQB44d+QfaI4hrndckYwFM4REXkvFyorRa6m53GpZTUlNGZJpXnAa0f/OXVUr2va9rte6ndXSb8Nup8x0FM4/s2Z4ud993Anw4DotMaC5wa0FznEAADJJ8B4lS7s22D6j1D3Vbfy+xW12CGvZmpkHkw+x73cfJTfVQaF2MaOmuFNQxwkjcac71TWSdGb54nx8AMnCqdrjVN21hqKe93iXemk9WONp9SGMHhGwdAPxOSVg0W1bM9CXnXd9FvtrO6p48Oq6t7cxwMPj4uPRvXyHFXK0HpGzaNsMVos1PuRt9aWV3GSZ/V7z1J+Q5Dgs+iozthsX6O7TL7bGs3IfSTPAOndyeu38yPgtfsEnc323TfYq4XfKRpX6DBERERfCMhUl25aSOkdolfRQx7lDVH0uj4cO7eTlo/ddvD3YWz9mnaJ+jGoP0dus+7Z7nIAxznYbT1B4B3k13AHzwfFW0CLxXy10N6tFVarlA2oo6qIxTRu+s0/keoPQqkO1DRldofVtRZqoukg/aUdQRjv4SeDv3hyI8R5haup/7L+0v0WaLQ97n/AFEjsWuZ59hx4mE+R5t88jwVlEREREREREREREREREREREREREREREREWrbTNcWjQ2nX3S5O7yZ+WUtK1wD6iTwHgBzLuQHwCpfrTU921bqCe9XmfvKiXg1jeDImDkxg6NH48zxKwqKStgWzt+t9S+k18R+g7e5rqonlM/m2Ee/m7y96t5cK63Wa1yVldU09DRU7MvkkcGMY0cvIe5V12rbf6ms761aH36WnOWvuUjcSvH9U0+yPvHj4Ac1omxjQdZtD1e51c6d1sp3ia5VLnEukJORHvHiXv6nmBk+CubR08FJSRUtNEyGCFgjjjYMNY0DAAHQALtRF8JAaSTgBVM7Re079Kro7T1ln/wBB0Un6yRruFXK0+1+43p4nj4LXtm+ybVetDHUwU30da3c66qaQ1w/q283/AIDzVmNm+yjSuimsqKWm9OuYHrV1UA6QHruDkwe7j4krZ9Wagtel7DU3q8VIgpKduSebnu6MaOrieACpZtP1xdNdakkuleTFTx5ZR0odlsEeeXm483HqfIBaqi3PZTs8u+vb16NSA01vgcPTK1zctiH2W/aeeg+J4c7kaO01aNKWKGzWWlbBTRcSTxfI483vP1nHx/yWXLg0Ek4AXClniqYGzwSNkieMte3k4eI8l2KtPbFsfdXey6jjYA2oifRzED6zDvsz8C75KBad25PG/wCy9rvkQV+hsDxJCyQcnNB+a5oiIiKIe1NpL6c0H9N00W9W2Vxm4Di6A8JB8ODv7JVSiOY5q2nZr2ifpRp/6Aus+9ebbGAHvPrVMA4Nf5uHBrvgeql9Fo+2fQVPrvSUlG0MjudNmWgnd9WTHFp+64cD8D0VKq2lqKKsno6yGSCpgkMcsTxhzHA4IPnldTHOY8PY4tc0gtc04II5EHoVb7s97SW6zsP0ZdJh9PUDAJs86iPkJR59HDx49VKgREREREREREREREXVJVU8dRFTSTxNmlDjHG54DnhvtYHM4yM+9doREREREREREREREWt7Q9ZWjROnZbvdpM/Vp4GEd5USY4Mb/meQHEql+vdW3fWeoprzeJQZHerDC0/q4I88GMHh4nmTxKwCLMaM07ctVakpLFao96oqX4LiPViYPae7yA4/IdVZ69az0Vsa0rT6Yt38vuNPHwpIXDfe88TJM7kzJ48ePgMBVx2g681Hrev9IvVYe4Y7MFHFlsEPub1P3jk+5YrStiuOpdQUlktUPe1dU/dbn2WjmXu8GgcSVd/Z5pO3aM0vTWO2ty2Mb00xGHTyn2nu8z+AwOi2FERRNtgu+ptTTTaC0FTvlleNy73He3IaVh/me8+2R7QGSBwxk8OvZrsJ03pvuq297l8ubcEd6zFPEfux9fe7PuClxjQ1oAAAAwAF5bzc6Gz2qpulzqo6WjpozJNLIcBrR/8AOXVUy2ybRq7X1/7wd5T2ilcRRUpPTl3j/vn8Bw8c6Ii3vZBs1umvrt6m/SWineBV1m7y+4zPN5+Q5noDcXS9htenLLBZ7PSMpaOBuGMbzJ6uJ5lx5knmvbW1VPRUktXVzxU9PCwvklkcGtY0cySeQUYWjUNVtUv89NahNTaJoJN2qqcFj7pIP5pvVsXIu6uGAcAkKVI2NjYGMaGtAwABgAL6o57RtjN82T3Tu2F89AG10QA45jPrf3C5UxecMcRxwCQv0HsEne2Ohl+3TRu+bQvaiIiIuuphiqKeSCeNskUrSx7HDIc0jBB+ContL0xLpDW9ysLw7uoJd6mcfrwu4sPy4e8FY/St9uGmtQUd8tUvd1dJJvtzycOTmO+64ZB96vHoPU9v1fpejvttd+qnb68ZOXRSDg5jvMH/ACPVZ1Oir92pNnPpNO/XNmg/XQtAucTBxfGOAmx4t5O+7g9FW1ZLS98uWm79SXu0zmGspX7zD0cOrXDq0jgQru7N9X23Wulqe9W47pcNyogJy6CUe0w/mD1BBWyIiIiIiIiIiIiJ0Ud7Xtqtn0JSGmbuV97kZmGia7G4DyfIfqt8uZ6eKqncdcanr9YxasqLrKbtBIHwSDg2ED6jW8gzoW9QTnPNXA2S66odd6WZcoNyGsixHW0wOTDJjp908wfDzBW4IiIiIiIiIiIiIsBrzVlo0dp6a83ebcjZ6scbfbmf0YwdSfwHEql+0XWd31vqKS73V+60ZbTU7XZjp48+y3z8T1PwA1tEW16c1pV6XsNRR6bYaO5VwxW3M4MwYOUUP2G9S7mT4YC1aR75JHySPc973FznOJJcTzJJ4k+a+NBcQ0Akk4AAySfcre9njZuNG6f+lbpABfbgwGYO508XMRDz6u8+HRSqiIi66eCKnj7uCJkTMk7rG4GSck+8niuxdVXUQUtLLU1MrIYYWF8kj3YaxoGSSegCqBt32oz63uht1skfFp+lkzC3kal4/nXDw+yOnM8TwjBFIuxfZbcdeXH0qo7yjsNO/FRVAYdKRzjjzzd4u5N9/BXAsNot1jtNParVSRUlHTsDIooxgAf5k8yTxJXVqa/WrTlmnu15rI6SjgGXPeeZ6NA5lx6AcSq0X3U+ptuGtIdMWdstusDX949nPdiaeM02OBP2WcgSOZ4qy+l7HbtOWGkstqgENJSxhjG8yfFxPUk8SfErJouqsp4qqkmpZ2B8MzHRyNPVpBBHyKoBqm0y2O/XSyzA95RVEtOc9Q0kA/EYPxV69Cy99oqyTZzv26nd842rMoiIiIoI7XGkvTLBR6upYszW93cVZA5wPPquP7r/AMHFVjUm9nvaEdF6o9CuExbZLk9rKnJ4QScmy+7o7y49FcVjg5oc0gg8QR1X1cZY2SxOikY17Hgtc1wyCDzBHUKmm3rZ4/Q2qe8ooybJXuL6N3SJ3N0JPiOY8W+4qOVvGxnX1VoPVLasmSW1VW7HX07eO8zo9o+23mPEZHVXTttbS3GggrqGeOopqiNskUrDlr2kZBC9CIiIiIiIiIiJkKD9te2+msff2DSMsVVdRlk9ZwdFSnqG9Hv/AAHXJ4KsVbVVNbVzVdZPLUVEzy+WWVxc97jzJJ5ldK2bZnrK46H1RDeKAmSI4jqqbew2eLPFvvHMHofIlXb0xfLbqKxUt5tNQJ6OqYHxu6jxBHQg8COhWSRERERERERERFhtZamtOk9P1F6vNQIaaEYAHF8jzyYwdXHw+PLKpftN1zdtdahdcri4xU8eW0lI12WU7PDzceruvuAWqoiIgU8dl/Zt9I1bNbXqDNHTv/0bE8cJZAeMp+608B4nJ6BWbHJERERfHuDGlziAAMkk4AVVO0NtXdqapl0xp+oIskL8VM7D/rjweQ/qwf4jx5AZhhFJ+xDZRW64q23K5CWl0/C/D5RwfUkc2R+Xi7pyHHlbu1W+itVugt1upoqWkp2COKKNuGsaOgCwW0TW9k0RZHXK8T+s7LaemYQZah/2Wj8yeA6qomutY6m2langE7HyF8oit9ugJLIy44AA+s49XH8BwVqNjGgKXQelW0rtyW6VOJK+cD2n9GN+43kPieq3lERVH7Vti+jdpf0lGzEN2pWy5A4d4z1H/gGH4qyGyWXvtmOmpM5za6f/AABbQiIiIi8V9ttJeLNWWqujElLVwuhlaRza4EFUM1VZarTuo7hYq0Hv6Kd0Tj9sD2Xe4twfisYrRdl3aJ9L2oaOu85dcKGPNFI93GaAfV83M/FuPAqcUWB19pa3aw0vV2K5NxHO3McgGXQyD2ZG+YPzGR1VHtV2G46Z1BWWO6xd3V0r912B6rxza9vi1w4j3rFqSNlW2DUGhoGW0xR3OzB5d6LK7dfHk5Pdv6ceOCCPcrL7Pdp2k9axtjtleIa7GX0NThkw8cDOHDzaSt0HEIiIiIiIiIi6a2qp6KllqqueOCCJhfJLI4Naxo5kk8gqxbatt9Teu/sOj5pKW2HLJ65uWy1I6hnVjD48z5DnB/uREUn7Adpcmib4bfcpXGwV0g78Hj6NJyEo8ujh4YPTjcKGRksTZYntex4DmuachwPIg9QuSIiIiIiIiIixWq9QWvTFiqLzeKptPSQNy48y49GtHVxPABUy2ra/uuvb+a2r3oKGAltFRh2WwtPU+Lz1PwHBaciIiLedjGgKnXmqm0rg+O1Uu7JXzt4YZnhG0/adjHkMnorp2+kpqCihoqOFkFPAwRxRsGGsaBgABd6IiIh5KtvaP2s+kmo0Zpmp/UAmO5VcbvbPWFhHT7R68vFV+RS3sK2RVOsJo75fY5KfT7HZY3i19aQeTfBni7ryHUi2NDSU1DRxUdHBHT08LAyKKNoa1jRwAAHILRdru1G0aDoDEd2tvMzM09E12MeD5D9Vn4np4ioerNR3fVF6mvF8rHVNTJwyeDI29GsHJrR4fE5KsR2Ytmn0VRM1ne6ci4VUf8gieOMETh7ZHRzx8m+8qdUREUM9raxen6BpbzGwmW11bS4jpFJ6jv724VuGwiXvtkGmXnjigY3+Ekf5LdkRERERVf7YFttUGqbXc6apiFxqqYsqqce0WMPqSH5lvngeCgxeyy3Ous13pbrbZzBWUsolhkHRw8fEHkR1BKu/sw1jRa30lTXqk3Y5T+rqoM5MEo9pvu6g9QQtoRRht22XM15b4a22yQ018owWxSSZDJ4+J7txHLjxB44OehVTdR2K76duslrvdBPQ1bOccg9ofaaeTm+YyFjVyje+ORskb3Mew7zXNJBafEEcipc2dbetTaf7ujv4dfre3A3pHbtTGPJ/J/udx81YzQev9L6zpu8sdyZJM0ZkpZfUnj97Dxx5jI81tKIiIiIiIsRq3Uln0tZZrve61lLTRcMni57ujWt5ucfAKo217areNeVTqVm/QWON+YqMO4yYPB8pHtHwHIeZ4qPERERWF7MW07unQ6Gv1R6jju2qd55H+gJ/w/w+CscERERERERERY7Ud6tun7LU3e71TKWjpmb0j3fgAOpJ4ADiSVTTa7tEuWvr738u/TWuncRRUe97A+27xeevhyHXOkIiIiyGmrLcdQ32kstqgM9ZVyBkbeg8XE9GgZJPgFd7Zto+36J0rTWWgAe5vr1E5GHTyn2nn8gOgAC2VERERQR2jdrH0TFPpDTVTi4vbu11VG7/AFZp/m2n+kI5n6o8zwrGimfYLsdl1NJDqLUsL4rG0h0FOctdW+Z6iPz+t04cTainhhp4GQQRMiijaGsYxoDWtHAAAcgFEO23bNSaUE1j086KsvuN2R59aKj/AHvtP8G9OvgarXGtrLlXz19wqZaqqneXyzSu3nPd4kqVOzls2OrL39O3eAmx0EnBjhwqphxDPNreBd8B4q2zRgYHJfUREWH1rZo9Q6SulklAIraWSIZ6OI9U/A4K1fs7GQbHLDFM0tliZNFI09HNme0j5hSAiIiIi07azr23aD00+4VO7PWzZZRUu9gzP8T4NHMn4cyFSzUN4uN/vVVeLtUuqa2qfvyPP4ADo0DgB0C8CLfdh+vpdCatbPUPebRW7sVfGOOG59WUDxbn4gkeCunTzRVEEc8EjZIpGh7HtOWuaRkEHqCFzRYTWGlLDqy1Ot1+t8VXDxLHHg+J32mOHFp9yrDtU2IX7S3fXGyd7erQ3LiWM/lEA++0e0PvN+ICiXpnoi7KWonpamOppZ5YJ4nb0csTy17D4gjiFNOzrtB3u1d3RasgN4oxhvpMeG1LB58myfgfMqxGjdY6c1dQel2C6Q1YaP1kYO7LF5PYeLfis8iIiIiLTNqO0axaDtnfV7/SK+VpNLQxuHeSnxP2WeLj8Mngqg6+1nfda3p1yvVTvbuRBTsyIqdp+qwfmTxPVa6iIpy2N7GYtS6AuV4vO9BUXGEstBP8zg5ExHXeIx+7nxULXWgq7Xc6q23CF0FXSyuimjPNrgcEe78wvMvrHOY8PY5zXNIIc04II5EHoVbvs9bTW6xsv0Rdph9P0LB3hPD0qMcBKPPo4eOD1UroiIiIiIiLxXy60FltNTdLpVR0tHTML5ZXnAaP8z0A5kqm+2XaVX69vWGd5S2WmefQ6UnBJ5d4/wAXnw+qOA6k6CiIiIOPLPyVuOzns2/RKxfTd3gxfLhGCWuHGlhPER+TjwLvgOiltERERF+et0c591rXPcXONTKSScknfdxK8wU39nzZAzULINV6ljDrTvb1JSH/APVEHG8/7gI5fW68Odoo2MjY1kbQ1rQAABgAeCiPtO65umlNOUNvslT6LW3R8jXTN/aRxNb6xZ4ElwGenHHFVLcS5xc4lxJySTkk+K2fZjoyv1xquCzUe9HCMSVdQG5EEQPF3vPIDqfcVdzTtnt9hslJZ7XA2CjpYxHEwdAOp8STxJ6kle9ERERYnS9obZaSqpI90QvrZ6iNo+qJXmQj+JzllkRERFgtc6ptekNOVN7u8u5DEMMY325nn2WNHVx/DmeAVKdfatuus9ST3u7P9d/qQwtOWQRg8GN8upPU5K19EQKx/ZX2id7CNC3ef9ZG0utcjz7TBxdD7xxLfLI6BWEREwoo2qbE7BqzvrjatyzXl2XGWNn6mc/1jB1+83j45VX9Z6Sv+kLobffre+mkP7KQetFMPFj+R93MdQFg0XptlfXWyujr7bWT0dXEcsmgkLHt+I/JTls57RFdSd3Q60pDWw8G+nUrAJR5vj5O97cHyKsFpfUlj1NbhcLFc6eupzzMTuLD4ObzafIgLLIiIiiXbTtkt+kGTWayd1X37GHAnMVJ5yY5u8GD4461SvV0uF5uk9zutZNWVk7t6WaV2XOP+QHQDgF40RFvWxPQkuutYx0kzHi1UmJrhIOHqZ4Rg+LyMe7J6K6tPBFT08cEEbY4o2BjGNGA1oGAAPABV+7V2gu8gbrm2Q+vEGxXNrR7TOTJfh7J8seCrii9+nrvcLDeqW8WqodT1lLIJIpB49QR1BHAjqCrsbK9b0GutLRXWk3YqlmI6ym3suglxxHm08weo88rbEREREREXlu1worVbqi43GpjpaSnYZJpZDhrGjqVTzbbtPrdeXb0alMtNYaV+aanPB0ruXeyDx8B9UeeVHKIiIinLsxbNvpi4M1leqfNvpJP5BE8cJ5mn9ofFrTy8Xe5WhCIiIiIvz0uP/aVX/4iT/G5fLfST19fT0FK0unqZWQxAdXOO6PxKv5pq1U9j0/QWelAENFTsgZgcw0Yz8efxWQ6KpXaxu/p+05luY7MdsomRkZ4B7yXu/AsUVWugrLpcqe3W+nfUVdTIIoYmDi9x5D/AN+gyVdbY9oSj0JpRlAwsmuE+Ja6oA/aSY5D7reQHvPMlboiIiIiIiIiLyXi40lptdTcq6XuqamjMkr90nAHgBxJ8hzVNdr2sb9r7UZq5KCvgtlOSyhpTA/1Gnm93D23dfDgOnHSvQK//YKz/wAu/wD5J6BX/wCwVn/l3/8AJPQK/wD2Gs/8u/8A5LokY+N5ZIxzHNOC1zSCPeCuK7qGqqaGtgraOd8FTBI2WGVhw5j2nII+Kuxsc11Ta60hFcPUjuEGIa+Fp9iXHMD7LhxHxHRbqiIsfqGyWq/2uW2XmggrqSUetHK3Iz4jqD5jiFWvansCudo7256PMtzoRlzqJxzURD7p/nB5e171CL2uje5j2ua5p3XNcMFpHQg8j5LeNm2kLVrmKazU1y+i9RxNdJTCc71PWsHEt8WPb5ZBHHHArC6y0bqTSNZ6Pf7XNSBxxHMPWhl/deOB93A+Sx9hvN1sVybcLNcKmgq2cpYXlpI8D0cPI5CnrZz2ih+rodbUeOQ+kKRmR73x9Pe35Ke7DebVfLcy4Wi4U9dSyezLDIHD3HwPkeK96LjI9kbHPe4Na0EuJOAAOqrrtq26FxnsGh6nA4sqLoz8Ww/9f8Piq8uc5znOc4uc4kkk5JJ5knqV8REXfbqOquFfT0FDA+oqqmRsUMTBxe9xwAFd3ZJoql0No6ntMe5JWP8A1tbOB+1mI4/2RyHkPNbceIIyR5rQtlGrKTaFomeK4xwy1cDn0VzpyPVceI3sfZe3j78joqr7WdGVGh9Z1VneHvo3frqGV385CTw4+LfZPmM9VqSLatl2trhoXVMV2ow6WnfiOsps4E8WeI8nDm0+PkSrs6cvFvv1kpbxa6htRR1UYfE8eHgR0IPAjoQsgiIiIiLouFZS0FDNW1s8dPTQMMkssjt1rGjmSfBVB257U6rXNyNutzpINP0z8xRng6pcOUjx4fZb05njyjFERFLOxXZYL9TSat1Sx9PpmjY6bcOWmsDAScdRGMHJ68h1KjG817rnd6y5OjbH6TM6UMa0BrATkNAHIAYGPJbTse0HV681WygbvxW6nxLX1A4bkeeDQftO5D4norr2yhpLbb4KChgZT0tPG2OKJgw1jQMABehEREREX56XL/tKr/8AESf43KSOzFp/6a2p01XIzep7VE6sf4b/ALMY/iJP9lXDHJfDy4qhW0K7/Tuub5eN7LKmtlew+DAS1v8AdaFYnszbNPoK3N1beoN261kf8lieONNC7qfB7hz8BgdSptCIiIiIiIiIiEJhMJha1tM1VTaN0ZX32fDnws3aeMn9rM7gxvz4nyBVGLhWVVwr6ivrZnT1VTI6WaRxyXvcck/NdCLcNkWtavQ+sILnEJJaOYiCtp28TLGT0HVzTxb8R1V4KeVs0LJWZ3XtDm5aWnBGeIPEe4rmiInRR5tR2S6b1ux9U+P6Ou+PVroGjLvASN5PHv4+BVYdY6M1ds2vsFTVxyQGGYPo7lTZMTnA5BDvqu+67B94VoNlOsrTtL0U5twpaaWsiaIbnRSMDmb2ODg082O5jw4jotL2hdni0V4krNIVX0VUHJ9EmJfTu8mn2mfiPJV91hpHUWkq30TUFrno3E4ZIRvRSfuvHA+7n5Lp0vqS+6YuPp9hudRQT/W7t3qyDwe08HD3hWC2c9oi31YjodaUot83AenU7S6B3m5vFzPeMj3KZarUthptOv1DNdqMWpjN81YlDoyPIjmemBxzwVWNs+2K5axfLaLOZrfYAcFpO7LV+cng37nzzyEUovVaLbX3e4w2610c9ZWTHEcMLd5zv/bzPALatpOz6u0JQWYXeqifcbi2WSSni4sga3dAG99Z2XHOOHDhnmtLQKx3ZT2fd3CddXWH15AY7Yxw9lvJ03x4tb5ZPVWFQ8lSvZbrWTQu0yauke76NnqZKevYP6MyHD8eLT63uyOqsftx0TDr3QpfbxHJcqRvpNulaciTI4x58HjHx3SqZOa5j3Me1zXNJDmuGCCOBB818RSp2fNpbtG3v6Ju0zvoCukHeE8RSynh3o+6eAd8+hzb2N7ZI2vY4Oa4ZBByCPFckRERF1VVRBS00tTUzMhgiYXySPcGtY0cSSTyAVR9vG1efWla6zWeR8WnoH8OhrHA8HuH2B9VvxPTEUoiIpk2B7IJdUyxai1FC+OwsO9DAeDq0j8ovE/W5DhkqXO0reYtP7JKmgpQyB9xcyghYwboaw8X4A5AMaR8VU2wWmvvt6pbRa6cz1lXII4mDxPUnoAOJPQBXc2X6LoND6Ugs1HuyTftKuoxgzynm73dAOgAW0oiIiIiL89Lj/2lV/8AiJP8blaHsjaf9A0LV32VmJbrUnuyR/NRZa35u3z8lNS1ralePoHZ3fbsHbr4KKTuzn67hut/EhVz7NezT9Jbs3Ul5g3rPb5B3LHt4VU7enmxp4nxOB0KtiAiIiIiIiIiIiIiKpnai1r9P6vGnqKbet9ncWv3TwkqTwef7I9X37yh9F77BZ7nfrtDarPRS1lZOcMijHHzJPINHUngFavY1sZtmj2xXe891cb9jLXYzFSnwjB5u++ePhhSyiIiIvPcqGjuNDLRV9LDVU0zd2SKVgcx48CCobrtld00Nqlmr9mj3SsZkVdlmlwJoifWZG8/MB3IgYPRS9YbnTXi1w19MJWMkHGOVhZJG4cCx7Txa4HgQu252+hudDLRXGkgq6aUYfFNGHsd7wVAW1/YZp2gtFbqKxXWOyQ0zDLLT1bi6nx4Nd7TSeQHrDJAwq5BdgnnFKaUTSinL+87rfO5v4xvbvLOOvNdaLeNl+zHUWu6oPo4/Q7W12JrhM07g8QwfXd5DgOpCtfs60Bp7Q9u9Gs9LmokaBUVkuHTTHzPQfdGAFBHbEqN/W9mpc8Ira5+P35T/wBCg9btsZ0NNrrWMVA9r222nxNXyjhiPPsA/aceA8snorsUlPDS0sVNTRMihhYI442DDWtAwAPIBdqHkvz6v7d2/wByb4Vkw/8AUcrJdlTXf0pZH6NuM2ay3M36Jzjxkp8+z72E/wAJHgtJ7UmgvoXUA1ZbYcW+5yYqmtHCKp8fc/Gf3gfFQqiKyvZc2j+mUrND3mozUwMJtkrzxkjHExE+LRxH3eHRT8iIiLhNLHDC+aZ7Y42NLnvccBoHMknkFU/b9tak1bUyaesEzmWCJ/6yUcDWuHX/ALsHkOvM9FD6IiKZ9gWx+TU0kWo9SwOjsjTvU9O4YNaR1PhH/i93O1UMUcMTIomNZGxoa1rRgNA5ADoFVvteX/0zWdBYI3kxW2m72Uf1svH8GNH8SkTs27Nf0Ysv6RXin3b1cIxuMeONLCeIb5OdwLvDgOhUxIiIiIiIvz4qKeaqvk1LTtL5pqx8cbR1c6QgD5kK+Wj7PDp/S9tslOAI6KmZDkfWLRxPxOT8VlVou2OwV2rrNQaVpHPgp66tY+vqAOEVPH67v7RduADx49CttsVrobLaKW1W2nZT0dLGIoo2jg1o/M9SepK9qIiIiIiIiIiIiLSNtWs2aK0LV3GJzfpCf+T0LT1lcD62PBoy4+5Uke973ufI9z3uJc5zjkuJ4knzyvi23Zps+v8Aru6GmtcPdUkTgKmtlae6hHh9533R8cDird7N9A2HQtp9DtEG/USAek1koBlnI8T0Hg0cB+K2tEREREQ8l8a0NzgAZ4nzXGaWOGF8sz2xxsaXPe44DQOJJPQKoO33adJrW7/Rdqlc3T9HJmLHD0qQcO9cPD7I8OPXhFqLsp4ZqieOnp4pJppHBkccbS5z3HkABxJVgdkewF0ndXfXbS1vB0dra7if++cP8A+J6KxNHTU9HTR0tJBFBBE0MjjjYGtY0cgAOAC7VUPtWVJn2tyxZ/1egp4/nvu/4lF1DS1FbWQ0VHC+eonkbHFEwZc97jgAe8lXa2PaHp9DaOgto3H18xE1dMB+0lI4gH7LR6o92eq3NEPJfn/qtu5qq8M+zX1A/wDVcvmlr3X6c1DRXy2SblXRyiRmTwcORafJwyD71dWCSw7Tdm+S3vLbdqbDm59aJ3UeT2OHzCpfrHT9fpfUtbYbk3FRSSbu8BgSNPFrx5OGD+HRYhF3UNXU0NbBW0c76epgkbJFKw4cx7TkEe5XV2Ma9ptd6TZWHcjudNiK4QN+rJjg4D7LuY+I6LeERFxke2NjnvcGtaMkk4AHiqr9oHa47Uk02mdOVBbZY3btTUMOPTHDoP6sf3vdzhZEXbWUtTR1DqargkgmZjejkbuubkZGQeIOCOBXUpr2A7H36ifDqXU9O5lmaQ6mpXjBrD9p3hH/AIvdztNFGyKNscbGsY0BrWtGAAOQAXyaRkUT5JHBrGNLnOPIAcyq6bH9Iv2g7RbptKvkG9ahXvkoIpBwne04YcdWMaG+93uKsciIiIiIiKnvZ+0/9O7Z45JGb1PbJZq2Xhwy15EY/iIPwVwgiYREREREREREREREKpr2h9bHV2u5YKSbftdrLqalwfVe7P6yT4kYHk0eKjZS5sa2L3LVhhvF/E1usZIcxuN2arH3c+yz7x4np4q1VjtNtslrgtlpo4aOjgbuxxRNw1v/ADPmeJXtRERERERCqzdpXakLhNPovT1RmjjduXKojdwmcOcLT9kH2j1PDkDmBUWy7P8AQ+odbXP0OyUhdGxwE9VJlsMA+87x+6Mk/irX7KtlentC07Z4Wen3dzcS18zRvDPMRj6jfdxPUlb/AIRDyVK+0PU+lbZNQOznu5IoR/ZiaFJPZU2ff/vq6wc96O1seOnJ835tb8T4KxYREUF9onZIL1HPqzTNN/pRjd6tpYx/rTR9do/pAOn1h586wKaOy1rv6E1G7Stxn3bfdH5py48IqnkB7ngY94HipF7T+gv0g02NTW2DeudqjJla0etNT83DzLeLh5bwVUvjlEW0bMNZV2h9WU95pN6SH9nV04OBPCTxb7xzB6EeZV3rDdaG92alu1tqG1FHVRiWGRvVp/I9COhXtRFV/tDbXTeXz6T0xU/6MaSytq43f6yRzjYf6MdT9bly5wYiz+iNHah1jc/QbDQPqC0jvZnerDCPF7+Q93EnoFNtw0fpjYtox2oq8w3rVUv6q3umZ+qjmI9qOM9Gj1i45PAcsqu9VPNVVM1VUzPmnme6SWR5y57iclxPiTxU17Adjr766DU+qacttIIfSUjxg1fg9w6R+A+t7udoo2NjjbGxoa1owABgAeC5LFasts9409WWmCpNKayPuHzN9pkbuDy3727kDzK9VnttFaLXTWy3U8dNR0sTYoYmDAY0DAC9aIiIiIiIVC3ZU0+KOyXzUMrP1lyuEkURI/monuH4vLvkppRERERERERERERERRp2itbfoloSWCjm3LrdN6mpcH1o24/WSfAHA83BU7pKaeqqYqWkgknnlcI4oo2lznuPIADiSrKbGNhUNv7i+61ijqKwYfBbjh0cJ6GTo933fZHn0npoAGAMBfURERERERQl2j9qf0BSSaU0/UYu9QzFVOw8aSMjkD0kcOX2Rx5kKrKBTXsj2E3K+91dtWie2Ww4cykHq1E48/6Nv94+XNWasVottjtkNstNFBRUcIxHFE3DR5+Z8zxK9yIh5KolPpCo2i7f7/SDfbb47nNLXTD6kLX7u6D9p27uj4nora0FLT0VFDR0kLIKeBjY4o2DDWNAwAPIBdyIiEcFXjtF7IzJ6TrHS9Ll/GS40cTfa8ZmAdftAc+Y45zXSNzmOa+N5a5pDmuacEEcQQfxV0thmt2a40RHLVPa66UeKevZ9p2OEmPB44+/I6Kue3/QZ0XrJ8lHFu2e5F01GQOEbs+vF/ZJyPIjwUcIimbszbR/0dvA0td59203CX+TyPPCmnPD4NfyPg7B6lWtCIvzuk/aPP3j+aRRySyNiiY6SR7g1jGAuc4nkABxJ8lOOyvYDcLn3Vz1o6W3UZw5tAw4nkH3z/NjyHre5WOtVss+m7KKS30tNbrfTMLt1gDGMAGS4n3DJJ4qmu2nXMuudZTV0b3C10oMFvYeGIweLyPFx4+7A6LfdgGx115dBqnVdMW20YfR0Ugwanwe8dI/AfW5nhzs8xrWNDWgBoGAAMAL6iIiIiIiIiL4c4OOaxmk7NBp/TtFZ6fiymj3c/acSS4/Ekn4rKIiIiIiIiIiIiIiLjI9kcbpJHNYxgJc5xwABzJVPNbVV92xbVKhmnqaSqpov1FJnhHDTtJ/WvdyaHHLvE5AGcKwOyLZTZdCUrao7tfensxLWvZjczzbGPqt8+Z6+CkQDCIiIiIiIijjbntKg0JYRDRujlvtYwikhdxEY5GV4+yOg6nh4qnFZU1FZVzVdXPJUVE7zJLLI7LnuJyXE+JWS0npu9apu7LXYqCSrqXcXbvBkbftPdya3zPwyrTbI9i9l0h3Vzuvd3W9tw4Sub+ppz/VtPX7x4+GFKwREROi1XZrpCDSlrqwSyW4XGrlrK6cfXke8kNH3Wg4HxPVbUiIiJhVl7RWyT6NfUav0xTfyFxMlwpI2/sD1lYB9Q83Dpz5ZxHWxrW0uh9a09ye9xt0+IK+Mcd6In2gPFp9YfEdVbHaXpWg19oae2d5EXSsE9DUjiGSYyx4Pgc4PiHFUku1urrTcp7bcqWWkq4HlkkUjSCCDg8+Y8+RXlRFbLs2bR/0osf6PXeo3rzboxuvceNTAOAf5ubwDvgepUwoqNbPNnmpdc1xZaKXco2vxNXTAthj8Rn6zvut+OFabZfso01oeJtRBF6fdt3D6+oaN8eIjHJg93HxJW/4CgTtV6/9Btw0TbJ8VNWwSXF7T+zh+rH5F2Mn7o81gOz/ALHHXM0+qtWUpFDwkoqGRuDP1Ekg+x1Dfrczw52Za0NAAAAHIBfURERERERERERERERERERERERERFq+0i0XfUVhOnrZUihir3d3XVnN0VP9cMHV7vZHQAknoD69E6TsekLMy1WKjbTwjBkeeMkrvtPdzcfy5DAWdREREREREWq7T9bW3Q2mJbtXESTO/V0lMHYdPLjg0eAHMnoPgqU6ovty1Jfaq9Xeo76rqXbz3cmtA5NaOjQOAH/ut92S7Gr5rIxXG495abGeIne39bUD+raeh+2eHhlWp0fpex6TtDLZYqCOkgHFxHF8jvtPceLj5lZocERERERYTXl+GmNG3a/mITGhpnysjLt0PcPZaT0ycBdujbyzUOlbZfGMEYrqWOcsByGlwyW564OQssiIuL2NexzHNDmuGCCMghVV7QeyZ2maiXU2nacmySuzUQMGfQ3k8x/Vk/wnhyxjduylrv6RtD9GXKbNXb2GShc48ZIM8WeZYT/CR4KXNV6V09qij9Ev1ppq6PHqmRnrs82uHrN+BUF677OMrBJVaNuneDn6FXHB9zZQP8Q+Kg/UunL5puuNHfrXVW+bPq98zDX/ALrh6rvgSsUshpy83DT98pLzapzDWUkgkjd0Pi0jq0jII8Crv7NtX2/WulKa90BDC8blRATl0Eo9ph/MHqCCtkXRQUdLQUkVHRU8NNTRN3Y4omBrWDwAHALvWubR9V0OjNI1t+rcO7lu7DFnBmlPssHvPPwAJ6KGdjOy6u1PeH7QdfxmY1cvpNPRzNx3ziciSRp5MHDdZ1ABPDANiGgNGAvqIiIiIiIiIiIiIiIiIiIiIiIiIiIiIiIiIiIixeqr9bNNWGqvN3qBBSUzN57uZcejWjq4ngB4lU01pqLUW1HXIlgo6iomlJioKCH1+5jzy8M9XOOBnyAU3bItg9BZ+5u+sBDcbiCHx0Y9angP3v6R3v8AVHgeanBrQ1oaAAByAX1ERERERQN2udQXu3Wi32WmMDbTdWSNqXbmZHPjc1waDngOR5cV6OyRqe5XXTlwsFW2E0tmEQpXtaQ/dkLyWu44OCOHLmpxRERddTBFUQSQTxMlhkaWPY9oLXNPAgg8wQqr7VdCXTZXq6k1npTf+iY6kSRcz6K8n9k/xjcCWgnocHjgmyeidRUGqtMUV+tzv1FVGHFhPGNw4OYfNpBCzK8l1tlvutE+iudFT1lNIMOinjD2n4FQxrvs7WO4d5VaUrX2ioPEU0uZacnwH1mfAkeSgbW2z/Vmj5HfTloljpwcCri/WQO/tjl7nYKymxHX82hNVNnmc99nrC2Ovibxw36srR9pufiMjwV0qOohqqWKpp5WTQysD45GHLXNIyCD4ELtXxxAGTwAUfT6ZOudXwX6/wARdYLW4/RNBIOFTLn1qmUfZ4YY08wN488KQgMIiIiIiIiIiIiIiIiIiIiIiIiIiIiIiIiIiIiIumtqaejo5quqmZBBCwySSPOGsaBkknoMKuWoINU7dtStFpbJbdGUMpbDVTsIbK7kZA367yOQ5NB4kElTVs70Fp7RFs9Fs1L+ueB39XLh005+87w8GjAHgtpRERERERfCqddo24apO0Kvs1+uUtTRU8vf2+Pca2NkTx6pAA4kDLSTnkV3dmC8Xui2mUtptkrPQ7iHenxPZkOZGxzg4HmHAnAPnxVwByRFo2o9bS2va3pvR4igNPdKaeWaR2d9rhnuw3jjBLXZ+C3lF5rlQ0lyt89BX08dTS1DDHLFI3LXtPMEKItGWus2Ta8dYpZZJtH6gnxb6h5z6JVnlE8/fAwD9bDeuVMw5Ii4yxxyxujkY17HDDmuGQR4EKLNd7CtHagMlTbYnWGudx7ykaO6cfvRHh/Durt2M2jWOiw7SGoImXC0ty+23GmdvNjHN0T2n1mDq3mOYzyUoIQCMEZCAADACIiIiIiIiIiIiIiIiIiIi4d9F3/cd6zvQ3f3N4b27nGcc8Z6rmiIiIiIiIiIiIiIiItc1ZpluqJI6K7zuNkjIfLRRkt9LeDkCU8+7HPcHtHmcDCz1JTwUtOympoY4YY2hsccbQ1rQOQAHABdqIiIiIiIsHr243W0aOul0slJDWV9JTumihlzuv3eJHDifVzwHMqmW0fXd215caavu9NQQy08ZijNLE5uWE5wSXHODy95XDZrrSr0Jf5L3Q0FJWzmndCG1BcA0EgkjdPP1cK7emK2quOnLdcK2mbS1NTSxzSwtdvCNzmgluT4ZWRXCeWOGF80sjI42NLnvccBoHEknoFSXatfZptrN0vFp1BLWMjqxJQ1sNQXd03AIEbugaS4YHD5q6dpqoK6209ZTVMdTDNE17JY3BzXgjmCF6kXivlqob1aqi13KnbPS1Dd2Rh/Ag8wQcEEcQQCFytMFTTW+Kmq6g1MsQ3DMeDpAOTnfeI5+a9aIiIiIiIiIiIiIiIiZQIiIiIiIuMsjIonSSPaxjAXOc44AA5kqu9JtFsUnaaddmXilNkltotzawyYiJxvj1vDfyM8uKsUCCMg5CIiIiIiIiIiIiIiJkeITKZTKEgDJXEyRjm9o+KCRh5PafiuSZTKZTI8UREWh7Udp9j0FPS0t2oLlUyVkTnxejxNLCGnBBc4gZ4jhx4FU2v81uqL5XT2mCanoJZ3vp4Zcb8bCSQ044cM49y6Lc6lZcKZ9a2R9K2ZhmbGBvOYHAuAzwyRlXg2Za5s+ubRPW2WmrqeGllED21MIZ626DhpBIOAR1W2LE6tu1is9llqNR11LR2+X9RI6odutdvAjd8yRngqH3yCjo71W01uq2VtFDO9tNOzOJYwTukZ8sK5GwOosw2Z2e12u50dbLRUkfpbYJQ4xSPy8hwHI5J+S35ERERERERERERERERERFDnawv9RZ9C2+nop5IamquLHgseWndiBkPL7wYpV09cI7rYqG6REFlXTRztx4OaD/mvciIiL49zWMc97g1rRkknAAXGnljnhZNDIyWN7Q5j2OBa4HkQRzC5ote1/qmxaTsDrjqGWRlHI/uA1kTpHPc4H1QB4gHnwVEqnuPS5fRy80/eO7veGCWbxxkeOMK+2jb9adR6dpbtZaptTRytw1wBBaRwLXA8QQeBBWYRERERERERMhdVRUQU0ZkqJo4WDm6RwaPmVrt02g6JtmRW6qs8RHNvpbXH5NJK1q47ddm9Jnu71NWEdKakkdn4kAfitcuPaT0pFkUNlvNUfF7Y4h+LiVgK/tNTHIoNIsb4Gorv8mtWDrO0hrKUEU1oslODyJZJIR83BYWq29bSJs93cqGnB/oqFnD+LKxNTte2kVGd/VdYzP8ARRxs/JqxtRtC11PnvdYXw+6rc38sLHz6p1PPnv8AUl6kz9qvlP8AxLxyXS5yftLnXv8A3qqQ/wCa6XVNS72qmd3vlcf81wMkh5ySfxlBJIOUsg9zyuxtVVN9mqqG+6Zw/wA13xXe7RfsrrcGfu1cg/4l7INWaqg/Y6mvcf7twl/6lkKfaLryn/ZawvY/eqi788rI0u2DaRT+zqurkx/SxRP/ADastS7etpEOO8uVBUAf0tCzj/DhZmi7SGsogBU2mx1HiQySMn5OKzdB2mqgYFdpGN3iYK4j8HNWet3aU0vIQK6xXmm8Szu5R/iCwW2baFs62g6FlpKe4T0t2pHekUIqaN7d544Oj3gCBvNyOfPCr0uUTHSysiaWBz3BoL3YaCTjiTyHmr3bNtM0ektF26x0pa/uYw6WUfzsruL3/E8vLC2NRxt/l01W6DuNhvN6t1BXSwekUTaidrXd4wktIHPBILc+ZVMwcjPLPirM9kB9nptO3GM3Kj+l66rLvRe9b33dRtAad3njJcVPQRERERERF5Z7lQQXKmts1ZBHWVTXuggc8B8oZjeLRzOMjK9SIiIiIiIiIuMm8WEMIDscCRnBVGNo+qtWahvL6XVVxdVTW6eWFkYibGyJwduuwGgc90c8qW+yprXUdfezpKsq2VFqo7e6Sna+Mb8W65oDQ4cS3DjwOVY4IiIi0Hb1qml0zs4uJnExmuMUlDTbjMjvHsdxcegwDxWL7MWpKO8bMqO1ROk9LszBS1DXMIAGXGMg8iN3HuIUpIo923VWkrjoy66bvV/tVDWSwb8DJ6hrXslHrRu3c5AyB05Eqlw8x7wrndnv6Ko9mNltdLcaKorBTekVEUM7Xva6Rxcd4A5GN4DipFRERERMhcZJGRsL5HhjRxJccALWb1tC0RZsi46ptULhzYKhr3fwtyVpl47QegKPebSPudycOXcUpa0/F5atNu/aYkILbTpQDwfV1n/Cwf5rUbt2gdoNYSKWS125vTuKXfPzeT+S1O6bSde3LIq9W3YtPNsU3dN+TMLWauqqqx5fWVU9S883TSuef7xK6GgN9kAe4L6ePNEQAlCQOZA95RpDjhhDj4N4r20tou1WcUtquFQT/RUsjvyCy1LoPW1TjuNJXx+eX8ie38wFkqfZNtGnxu6RuDc/0hjZ+blkqfYftLmH/wBvxx/95Wwj/iXsi2BbRn+1RW2P96ub/kCvQOz1tAI4usw/3x3/AEIez1tAHWzH/fHf9C63dn7aG3lDaXe6t/8A6rofsE2kN5W63v8A3a9n+YXnl2G7S4xn6Bhf+5XRH/iXhn2QbSYs72lKt37ksTvycvBUbNtfwZ7zR95wOraff/wkrGVWlNUUoJqdN3qEDq+glH/CsZPTVMBxPTTxH+sic38wujfZnG+3P7wXIZxw/BOSLZbLr/WtmhjhtuqLrBDGA1kRn32NA5ANdkAeS3C0bftodEQKmpt1xaOlRSBpPxYWrBbVtoTtoD7fV1tkp6C40jXROngmLmyxniGlpGRg5I4nmVo6nXslW2yx3i4aguVxoI66NvotFTyTsbL62C94aTniMNB/eVnWkEZB4eK+oiIiIiL5I5rI3Pe4Na0ZLicADxVcdpeurYO0RpWvo7nST262tZDPURTB8be9c4SZcOHBpaT4KxVJUQVVMyoppo54ZBlkkbg5rh4gjgQu1ERERERERFGm23adU7PWUDYbA64enNfuTvn7uJjm49U4BJODnpwVS9WXqTUOpbhfZqWCllrpjNJFCSWNceeM8ePP4rYNjmuRoHVj7vJb/ToJqc08zGv3XtYXB283PAn1eR4eYV0rDcqe8WWiu1IJW09ZAyeISM3XBrhkZHQ4K9qIiKu/a+1Bc4WW/TLrfT/RtS1tWyqJcZO9Y5wLR0AAcPHO8sT2QL9PT6kuenGUQlhrIfS3zh2DEY8NAI6g73zVnkPJVr7Xmk+5uFBrGkiO5OBR1pA5PbkxuPvGW/AKAFPnY4sgkvV81C+MYghZRxOxzc877vwa35qy4REXwuABJPAdVr1+11o+xg/SupLXSvHAxuqGl/8ACMn8Fod77QuhKEObQi5XV45dxT7jD/aeR+RWjXvtLXWQubZdM0lOOj6uodIf4WgD8Vo96217RrmHN+nhQsP1aKnZHj+0cu/FaVdr3ebs8vul2uFc4/7RUvePkTheBoDfZAHuGERAM8l8Dml26HAu8AeKy9q0xqS6Y+jdP3arzyMVHI4fPGFtNs2NbSK/BZpqWnaetVPHF+BOfwWz2zs5a0qGh1ZcbLRDqO8fK4fJoH4rZbd2ZWYBuOrpD4tpqID8XOP5LYrd2ctEwtHpddeqt3nO2MH4Nb/mthoNiOzWkAzp1tQ4daiplkz8C7H4LPW/Z7oegx6LpOysI5E0bHH8QVm6S1Wyk/1W30kGP6OBrfyC9mEwvmB4BfURERMJgeAQABMLjJGyRpbIxr2no4ZCxlXpvT9WCKqx2yfPPvKSN35hYOu2W7PazPf6QtOT1jg7s/NuFgbhsG2b1QPdWmpoyetPWyD8CSFr9x7NulZSfQb3eaXwDzHKB82grW7j2Zq5uTbdWU8ng2poy38WuP5LWrn2e9f0pPo30TXgcu6qiwn4PaPzWrXPZZtCt28ajSVye0fWp2tmH9wkrVq+319veWV9DV0jhzE8D4z/AHgF5QGvGRuv92CszZNU6lsjgbRf7nRAfViqXBv8JOPwW+2Hb7tAt262rqKC7Rjhiqpw12P3mY/EFSDp7tK2uTdZftOVlKfrSUkrZm/wu3T+akXTm1rZ/fHNjpdSUkEzuUVXmB2fD18D8VusM0U0QlhkZIxwy1zXAgj3hcwiIiLxXx9vFqqYrnUQQUk0To5XTPDG7rgQck8ORX5/1tM2jrZ6RkjJGQSvia9jgWvDXEAgjgQQMq4nZndD/wDRqzMjkY4tMwe1rgdw9684PgcYOPNSSi0rZlrj9L67UtMaeKEWi6PpIixxPeRDg15zyJLXcuC3VERERFhdaamtek7BLeru+VtLHJHGe7ZvOJe4NGB7zn3ArMtIc0OByCMgr6tP2waRj1poWus4a0VbR39E8j2Zm5LfgeLT5OVH5o5IZXwzRuiljcWPY4YLXA4IPmCML26atUt81DbrNACZK6pjpx5BzgCfgMlX9ooIaWkipYGhsULGxsaOjWjAHyC7kREVQO0NrTUF51JV6Yvdut1Oy01zzTviY7vCwj1SXE8Q5paTw548FidherbjpbWsMdrttLXT3aSGhImc5pa10gzukdevHwV1RyXVWRGekmhbLJCZGOaJIzhzMgjI8xzVF9fv1Tb9QXDT2orzc62WjnLHCoqnvbIBxa/BOOIw4e9aypA2D0+pbprygs9jvFxt9L3oqq008zmtETCN4lvIk8G8R1Vyq6voqCAzV9ZT0sQ5vmlDGj4khaPfts2zq0F7H6hirJWnHd0THTn5tG7+K0G/dpa3R77LHpqrqD9WSsmbEP4W7x/JaFfNv+v7gXNo5rfamHhimp9938UhP5LQr5qzU97J+ltQ3StB+pJUu3P4QQPwWEAA5AD3BfURxDRlxDfecL32qy3i6vDLXaa+uceQp6Z8n4gYW42fYztHuQDm6ckpGH61ZMyLHwyT+C3Kz9mzUk+666X+10TTzbDG+Zw+e6FuFo7NmmYSDc75dq09RHuQtPyBP4rbrTsW2b28NI05FVvH16uV82fgTj8Ft1r03p+1tAttkttHu8u5pWMPzAWVwmB4IiIiIiIiIiIiIiIiIiYC654Yp4zHNEyRh5te0OB+BWt3nZ3oe75Nw0taZXHm8UzWO/ibgrTLx2fNAVu+6jjuVsceXo9UXNHweHLS712Z6gAusuqo3+DK2lx/eYf+FaPe9hW0W277orXTXKNv1qOpaSf7Lt0rRr1p2/WZxjvFkuNB/wCIpntb8yMfilg1FfLHJ3tjvNdQEf7NUOa34tB3T8lJOmu0Fri27sdzbQ3mIcD30fdSY/eZw+bVKOmO0TpC4bsd5pK+zSnm5zO/iH9pnH5tUo6e1JYdQU4qLJd6K4Mxk9xMHFvvHMfELKoih7tV6UffNBsvNOxz6iyvMzmDiHQuwJOHiMNd7gVU3yU7djmhq5NTXy4NmmZRwUjInxteQx8j3ZaSORIaw8fNWdWobYrxebDs3u95sMkUddSRtka6SPfAbvjfODwyG5PFVt7OGqbxbdp1NbaeSN9Pe592tbIzJcQ17g5p6HOfmrgg5CIiIiKvnbDvlxhobVpxsEQt1bmpfNx3zJG7AYOmMOB8VJ+xLUdXqjZta7tXQxxTkPhduEkO7txZvceWd3K2XUVFUXGw11BSV01BUVED44qmE4fC4ggOB8iqOajvGsaW61dsvV9vJq6WV0M7H10pw5pwfrcuo8sLX3Oc5xc9znOcckuOST4krut1bWW6tiraCqmpaqF29FNC8tew8sgjlzKnXsy6h1tqPXcrLjqS5VlsoqR0k8VRLvte5xDWDiM5zk8+isuiIsbqirr6DTtwrbXRsra2CmfJBTucWiVzQSG5HHjhUj2jaxqtcai+nK230dFUGFsThTb2HhucF28eeDj3BeHRt9k0zqehv8NJDVy0MhljimJDXO3SBy48M5Hmr16Zq62u09b625UbaOtnpmST07XFwie5oJbnyXnvuq9NWNjnXi+26hx9Waoa1x9zc5PyVVO0fqjTGqtZ0tbppwqBFSCKpq2tLWzO3iWgAgE7oyM9c46KMFk7DqG+WH0j6EutXbjUtDZnU79xzwM4BI49TyXjrqurr5jNX1VRVynjvzyukPzcSuhEcQ0ZcQB4ngshaLJebxII7TaLhXuPIU9M+T8QMLdrJsS2jXMNcbIygjP1q2oZHj+yMu/BbxZOzRcX4dedUUsA6so6Z0h/ieQPwW72Xs86Eot11c653N45iap3Gn4MA/NbtZNnmiLNg27S9qhcOTzTh7/4nZK2aKNkTAyNrWNHJrRgD4LkBhEREREREREREREREREREREREREXGSNkjCx7Q5pGCCMg/Barf9m2hr6S65aYtz5Dzlji7p/8TMFR7f8As36Xqt59mu9ytjzya8tnjHwOHfio51D2edb2/efbJrdd4xyEchhkP9l/D+8o8u+nNV6WqhNcbRdbTMw+rOY3sx7pG8PkVtmktt2vbGGMkucd4pm/zde3fPwkGHfMlXLQqqm0DbLtFoL5dtO1tPZqUwSyU8sYoy8OYcge07iHNIPLjlQuOHAcAt92Y7U75oG3VVFaLbbaplVN30hqGv33O3Q0AFrhw4eHVXMtM1TPa6WashbDUyQsdNG05DHloLgD4AqEO1xUamobZbai33WqgslUH0lbTxHda554t3yOJDm7wxnHDzVcbJc7jZ7rTXO01D6evp3h8EjQCQ7kOB4HOcY65V/bSao2ulNduel9wzv9wYbv7o3sDoM5XqREREPJU/7T0F6pdp1TFca+rqqKaNtRb2SvJZExww5rByGHNP4ZUldjue6TaXvMdRUyPtsFUxlJE4cI3lpdJunwOW8PHPipUvuuNIWOqkpLvqS1UdTHjfhlqWh7c8RlvMcFWftJV2i77qCl1Bpa90lbVzt7mvhha7iWj1JMkYPD1T7mqJkVi+y9ftGab0pWG6ajtlHdbhVF0kU8wY5sbBusBzw+074qwFvraS4UcdZQ1UFVTSjMc0Lw9jhyyCOBXoRdVVU09LEZameKCMc3yPDR8ytNv21jZ9Z99tVqehllaP2dKTO73epn8VT7XtTZKzWV1rNONmbaqiodLTtlj3HN3uLhjoN4nHlhYqhqZKOtgq4QwyQSNkZvsDm7zTkZB4EZHIrP37X+tb5vC56nukzHc42TGKP+FmAtaPFxeeLjzceJPxRPNdtFTVNbKIaKnnqpDyZBGZHfJoK3Ox7JNod3wYNMVdOw/XrHNgHvw45/Bb1YuzbqKo3XXi/W6haebYI3TvHz3Qt6sfZ00ZSAOudbdbm8cw6UQsPwYM/it7sWzbQtlIdbtL2xjxykkhEr/wCJ+StpiijiYGRMaxo5NaMAfALngIiIiIiIiIiIiIiIiIiIiIiIiIiIiIiIi4yRskYWPaHNcMFpGQfgtL1Psp0FqHffW6epYZ3fz9IO4kz45ZgH4grdljNQ6gsmn6ZlTfLrR26GR26x1RKGBxxnAzzOFV/tM3HRl/vVDftM3yjrq1zPR62KHeOQ3JZJnGDji08fsqH1n9nMdqk11Zvpysgo7bHVslqZZjhgaz1sH3kAfFXf09qKxaggklsd3obiyIjvDTTNfuZ5Zxyzg8/BVa217RtZ11wvWi77T2uKlhqiwsipjvYa7eje17nEjI3TnHUqLbfUuorhT1jI45HU8zJWskGWOLXAgEdRkK5OwbWt711peru95oaKm7urMEJpt4CQBoLiQ4nkTjmpDRERF0V8LqmhqKZk8lO+WNzGyxnDmEgjeHmOaoVq43yK/wBXb9QV1ZWV1DM+ne6pmdIQWuwcFxPA8D8VJPZVqb5NtEit1Nc6yK0wwTVVVStlPcvO6GAlvLOXN48/VW2dq7QW9E3XVsh9ZgbFc2tHNvJkvw4NPlu+Crnx6oi9Nrgp6m409NV1rKGnkkDZah7S4RMzxdgAk4HQDicKyVFty2e6UsFJY9N2y7VlNRxCOINhbE045kl5ByTkk45la1e+0rfZt5tn07QUbTwDqmZ0zh54G6Fo962ybRrrvNfqOWjYfqUUTYcfEAu/FaXcrjcLnKZblXVda8nJdUTOkP8AeJXlHAYHAeAQceSN9Z4Y31nnk0cSfgtlsegdaXrdNt0xdZmO5SOgMbP4n4C3qydnnXNbh1wmtdrYeYkmMrx8GDH4re7F2arLDuuvWorhWHqymibA35neP5LerFsb2dWnddHpunqpG/XrHOnPyccfgt2oLfQ0EIhoaOnpYxyZDE1g+QAXpREREREREREREREREREREREREREREREREREREXmoq+irW71HV09Q3xila8fgVqm2XRkettD1VtY1or4f19DIR7MzQcDPg4Zaff5KkczJIpXxTMfHJG4texw4tcDgg+YOQuC+tySA0EknAA5nyCtloK3UuxzY/Le7rb6mprpjHUXFtM0F7S4hrWcSAGsB4nxLj1UDbadZWfXOpYb1bLTVW+YQCGo757D326fUdhvIgEj3Y8FooVnOzJr6zSWu2aCpLXcWVsUEs01SWtMTnbxc5xIOQCSAMjwCndETI8UXFz2taXOcGtHMngFG23m8luzyvNi1XBbLpTls7Gw1rGSTNafWjHHOSCeXUAKn1wrKu4VktbX1U9XUzHekmmeXveeWSTxKyOkb/ctO3iKst10r7c1z2NqH0bgHviDgS3B4H3Hgps1H2jqOuoaigp9GGop543RSNrasAPaRggtYDzHmq+yFhkcY2bjCTut3s7ozwGTzx4riiIAgwXBgOXHkBxPyWfs2idX3jBtmmbtUtPJ4pXNb/E7AW72XYBtBr901VPbrYw9amqDnD+ywO/NbtY+zPCN1161TK/j60dHTBv8AeeT+S3mybCNnVuw6a1z3J4+tWVLng/2Rhv4LebNpvT9mYGWmy26hAGMwUzGH5gZKyuERERERERERERERERERERERERERERERERERERERERfndC98Dt6F74XDrG4tP4LNW/WGrKAAUWp71AByaytkx8icLF3Gtq7jXz11dO+oqp3l8sr/AGnuPMnHVedd9vq6igr4K6kk7uop5GyxP3Q7dc05Bwcg8fFSjHt61bPZKm0Xu32e8U9TE6GV00Lo3OY4EEHcOPwUT8OnL35Rbvss2i1ez91dNbrNQVlVWBrXT1D3gsY36gDemeJ+Hgt1f2k9XkEMsdib7xKf+JeKo7ROvJM93TWSH92lefzesfPt62kSZ3LnQQ/93QM/zysXVbYdpNQDvaqqo8/0UMTPyasRWa+1vWAio1dfHg8wKx7R8mkLCVVwuFWSauvrKgnmZah7/wAyvKGtByGNz44X1MHwXzebnG83PhlZK2WG+XMgW6y3Kszy7ikkePmBhbXadj20e447vTFRTt+1VSsh/Bxz+C2209nDWFQA64XW0ULTzDS+Zw+QA/FbhZ+zTZoy1121Lcan7TaaFkI+Z3itxs+w7Zxb8F1jdXPH1qyofJn4ZA/BbpZ9N6fs7Q21WS3UWBgGCmYw/MDKyuAiIiIiIiIiIiIiIiIiIiIiIiIiIiIiIiIiIiIiIiIiIiii69n7Z7WEmnp7jbif9mq3EfJ4cFqdy7M1Gd423VdVH4NqaRr/AMWlv5LXK7s26siyaK+WapHQPEkRP4OWCq9gu0iAnu7bQ1IHWKuZx/iwsRU7ItpFOSH6TrX4/o5I3/k5Y+bZzr2H9po+9j3Upd+S8j9GavZ7elb4P9wk/wCS6XaV1O32tN3oe+gl/wClBpbUx5acvJ/3CX/pXYzR2rX+zpa+H/cJf+S9MOz/AFzN+z0hfHf7m4fmvbBsr2izezo+5t/faxv5uWTpdiO0ufiNPNiH9bWRN/4isrRdnvaDOf130PSj+srC7/C0rNUXZq1G8j0zUdqhHXuoZJPz3VnKDsy0YANdq2qeeogo2M/FxK2G39nXQsABqqi81juu/VBgPwY0fmtjt2xnZtRYLNL0s7h9aokfKf7xK2e2aW03bABbrDa6Td5GKkY0/MDKy4aAMDgPJfQERERERERERERERERERERERERERERERERERERERERERERERF//2Q==;clipPath=inset(3.33% 27.67% 0% 0%);" parent="1" vertex="1">
                    <mxGeometry x="20" y="70" width="180" height="120.28" as="geometry"/>
                </mxCell>
                <mxCell id="bDW-R8JKIX6z7XVOLLpX-5" value="" style="verticalLabelPosition=bottom;verticalAlign=top;html=1;shadow=0;dashed=0;strokeWidth=1;strokeColor=#6c8ebf;shape=rect;fillColor=#7FBBE3;" parent="1" vertex="1">
                    <mxGeometry x="20" y="190" width="182.5" height="170" as="geometry"/>
                </mxCell>
                <mxCell id="bDW-R8JKIX6z7XVOLLpX-6" value="Climby" style="ellipse;whiteSpace=wrap;html=1;aspect=fixed;labelBorderColor=none;labelBackgroundColor=none;fontFamily=Times New Roman;verticalAlign=middle;" parent="1" vertex="1">
                    <mxGeometry x="70" y="150" width="80" height="80" as="geometry"/>
                </mxCell>
                <mxCell id="10" value="" style="verticalLabelPosition=bottom;verticalAlign=top;html=1;shadow=0;dashed=0;strokeWidth=1;shape=mxgraph.android.phone2;strokeColor=#c0c0c0;" parent="1" vertex="1">
                    <mxGeometry x="310" y="10" width="200" height="390" as="geometry"/>
                </mxCell>
                <mxCell id="20" value="" style="strokeWidth=1;html=1;shadow=0;dashed=0;shape=mxgraph.android.action_bar;fillColor=#1A1A1A;strokeColor=#c0c0c0;strokeWidth=2;fontColor=#FFFFFF;whiteSpace=wrap;" parent="1" vertex="1">
                    <mxGeometry x="317.5" y="40" width="185" height="30" as="geometry"/>
                </mxCell>
                <mxCell id="23" value="" style="rounded=0;whiteSpace=wrap;html=1;fillColor=#6d8764;fontColor=#ffffff;strokeColor=#3A5431;" parent="1" vertex="1">
                    <mxGeometry x="320" y="210" width="180" height="150" as="geometry"/>
                </mxCell>
                <mxCell id="24" value="" style="rounded=0;whiteSpace=wrap;html=1;fillColor=#b1ddf0;strokeColor=#10739e;" parent="1" vertex="1">
                    <mxGeometry x="320" y="70" width="180" height="140" as="geometry"/>
                </mxCell>
                <mxCell id="25" value="+&lt;br&gt;New Climb" style="rounded=0;whiteSpace=wrap;html=1;" parent="1" vertex="1">
                    <mxGeometry x="360" y="110" width="100" height="60" as="geometry"/>
                </mxCell>
                <mxCell id="26" value="Vid" style="rounded=0;whiteSpace=wrap;html=1;" parent="1" vertex="1">
                    <mxGeometry x="330" y="240" width="50" height="50" as="geometry"/>
                </mxCell>
                <mxCell id="27" value="IMG" style="rounded=0;whiteSpace=wrap;html=1;" parent="1" vertex="1">
                    <mxGeometry x="440" y="240" width="50" height="50" as="geometry"/>
                </mxCell>
                <mxCell id="28" value="IMG" style="rounded=0;whiteSpace=wrap;html=1;" parent="1" vertex="1">
                    <mxGeometry x="385" y="240" width="50" height="50" as="geometry"/>
                </mxCell>
                <mxCell id="30" value="View All" style="strokeWidth=1;shadow=0;dashed=0;align=center;html=1;shape=mxgraph.mockup.buttons.button;mainText=;buttonStyle=round;fontSize=17;fontStyle=1;whiteSpace=wrap;" parent="1" vertex="1">
                    <mxGeometry x="370" y="310" width="80" height="30" as="geometry"/>
                </mxCell>
                <mxCell id="31" value="" style="endArrow=classic;startArrow=classic;html=1;fillColor=#01011D;exitX=0.94;exitY=0.793;exitDx=0;exitDy=0;exitPerimeter=0;" parent="1" source="30" edge="1">
                    <mxGeometry width="50" height="50" relative="1" as="geometry">
                        <mxPoint x="620" y="330" as="sourcePoint"/>
                        <mxPoint x="210" y="520" as="targetPoint"/>
                    </mxGeometry>
                </mxCell>
                <mxCell id="32" value="" style="endArrow=classic;startArrow=classic;html=1;fillColor=#01011D;entryX=1;entryY=0.5;entryDx=0;entryDy=0;" parent="1" target="25" edge="1">
                    <mxGeometry width="50" height="50" relative="1" as="geometry">
                        <mxPoint x="590" y="140" as="sourcePoint"/>
                        <mxPoint x="590" y="186.21" as="targetPoint"/>
                    </mxGeometry>
                </mxCell>
                <mxCell id="33" value="" style="endArrow=classic;startArrow=classic;html=1;fillColor=#01011D;entryX=1;entryY=0.5;entryDx=0;entryDy=0;" parent="1" edge="1">
                    <mxGeometry width="50" height="50" relative="1" as="geometry">
                        <mxPoint x="310" y="189.5" as="sourcePoint"/>
                        <mxPoint x="150" y="189.5" as="targetPoint"/>
                    </mxGeometry>
                </mxCell>
                <mxCell id="34" value="" style="verticalLabelPosition=bottom;verticalAlign=top;html=1;shadow=0;dashed=0;strokeWidth=1;shape=mxgraph.android.phone2;strokeColor=#c0c0c0;" parent="1" vertex="1">
                    <mxGeometry x="10" y="425" width="200" height="390" as="geometry"/>
                </mxCell>
                <mxCell id="35" value="" style="strokeWidth=1;html=1;shadow=0;dashed=0;shape=mxgraph.android.action_bar;fillColor=#1A1A1A;strokeColor=#c0c0c0;strokeWidth=2;fontColor=#FFFFFF;whiteSpace=wrap;" parent="1" vertex="1">
                    <mxGeometry x="17.5" y="455" width="185" height="30" as="geometry"/>
                </mxCell>
                <mxCell id="37" value="" style="rounded=0;whiteSpace=wrap;html=1;fillColor=#b1ddf0;strokeColor=#10739e;" parent="1" vertex="1">
                    <mxGeometry x="20" y="485" width="180" height="295" as="geometry"/>
                </mxCell>
                <mxCell id="43" value="Vid" style="rounded=0;whiteSpace=wrap;html=1;" parent="1" vertex="1">
                    <mxGeometry x="30" y="560" width="70" height="70" as="geometry"/>
                </mxCell>
                <mxCell id="44" value="Vid" style="rounded=0;whiteSpace=wrap;html=1;" parent="1" vertex="1">
                    <mxGeometry x="120" y="660" width="70" height="70" as="geometry"/>
                </mxCell>
                <mxCell id="45" value="Vid" style="rounded=0;whiteSpace=wrap;html=1;" parent="1" vertex="1">
                    <mxGeometry x="30" y="660" width="70" height="70" as="geometry"/>
                </mxCell>
                <mxCell id="46" value="Vid" style="rounded=0;whiteSpace=wrap;html=1;" parent="1" vertex="1">
                    <mxGeometry x="120" y="560" width="70" height="70" as="geometry"/>
                </mxCell>
                <mxCell id="55" value="Vid" style="rounded=0;whiteSpace=wrap;html=1;" parent="1" vertex="1">
                    <mxGeometry x="120" y="745" width="70" height="35" as="geometry"/>
                </mxCell>
                <mxCell id="56" value="Vid" style="rounded=0;whiteSpace=wrap;html=1;" parent="1" vertex="1">
                    <mxGeometry x="30" y="745" width="70" height="35" as="geometry"/>
                </mxCell>
                <mxCell id="57" value="Filters" style="ellipse;whiteSpace=wrap;html=1;aspect=fixed;fillColor=#d5e8d4;strokeColor=#82b366;fontColor=#000000;" parent="1" vertex="1">
                    <mxGeometry x="70" y="495" width="30" height="30" as="geometry"/>
                </mxCell>
                <mxCell id="60" value="Search" style="ellipse;whiteSpace=wrap;html=1;aspect=fixed;fillColor=#d5e8d4;strokeColor=#82b366;fontColor=#000000;" parent="1" vertex="1">
                    <mxGeometry x="140" y="495" width="30" height="30" as="geometry"/>
                </mxCell>
                <mxCell id="61" value="" style="endArrow=classic;startArrow=classic;html=1;fillColor=#01011D;entryX=1;entryY=0.5;entryDx=0;entryDy=0;" parent="1" target="57" edge="1">
                    <mxGeometry width="50" height="50" relative="1" as="geometry">
                        <mxPoint x="310" y="540" as="sourcePoint"/>
                        <mxPoint x="244.8" y="525" as="targetPoint"/>
                        <Array as="points">
                            <mxPoint x="220" y="550"/>
                        </Array>
                    </mxGeometry>
                </mxCell>
                <mxCell id="62" value="" style="verticalLabelPosition=bottom;verticalAlign=top;html=1;shadow=0;dashed=0;strokeWidth=1;shape=mxgraph.android.phone2;strokeColor=#c0c0c0;" parent="1" vertex="1">
                    <mxGeometry x="310" y="425" width="200" height="390" as="geometry"/>
                </mxCell>
                <mxCell id="63" value="" style="strokeWidth=1;html=1;shadow=0;dashed=0;shape=mxgraph.android.action_bar;fillColor=#1A1A1A;strokeColor=#c0c0c0;strokeWidth=2;fontColor=#FFFFFF;whiteSpace=wrap;" parent="1" vertex="1">
                    <mxGeometry x="317.5" y="455" width="185" height="30" as="geometry"/>
                </mxCell>
                <mxCell id="65" value="" style="rounded=0;whiteSpace=wrap;html=1;fillColor=#b1ddf0;strokeColor=#10739e;" parent="1" vertex="1">
                    <mxGeometry x="320" y="485" width="180" height="295" as="geometry"/>
                </mxCell>
                <mxCell id="71" value="" style="rounded=0;whiteSpace=wrap;html=1;labelBackgroundColor=none;fillColor=#b0e3e6;strokeColor=#0e8088;" parent="1" vertex="1">
                    <mxGeometry x="340" y="500" width="140" height="240" as="geometry"/>
                </mxCell>
                <mxCell id="74" value="V1" style="strokeWidth=1;shadow=0;dashed=0;align=center;html=1;shape=mxgraph.mockup.forms.comboBox;strokeColor=#999999;fillColor=#ddeeff;align=left;fillColor2=#aaddff;mainText=;fontColor=#666666;fontSize=17;spacingLeft=3;labelBackgroundColor=none;" parent="1" vertex="1">
                    <mxGeometry x="420" y="520" width="60" height="20" as="geometry"/>
                </mxCell>
                <mxCell id="75" value="Grade" style="rounded=0;whiteSpace=wrap;html=1;labelBackgroundColor=none;fontColor=#000000;fillColor=#7daee3;" parent="1" vertex="1">
                    <mxGeometry x="350" y="520" width="60" height="20" as="geometry"/>
                </mxCell>
                <mxCell id="77" value="Location" style="rounded=0;whiteSpace=wrap;html=1;labelBackgroundColor=none;fontColor=#000000;fillColor=#7daee3;" parent="1" vertex="1">
                    <mxGeometry x="350" y="560" width="60" height="20" as="geometry"/>
                </mxCell>
                <mxCell id="79" value="" style="strokeWidth=1;shadow=0;dashed=0;align=center;html=1;shape=mxgraph.mockup.forms.comboBox;strokeColor=#999999;fillColor=#ddeeff;align=left;fillColor2=#aaddff;mainText=;fontColor=#666666;fontSize=17;spacingLeft=3;labelBackgroundColor=none;" parent="1" vertex="1">
                    <mxGeometry x="430" y="560" width="30" height="20" as="geometry"/>
                </mxCell>
                <mxCell id="80" value="Style" style="rounded=0;whiteSpace=wrap;html=1;labelBackgroundColor=none;fontColor=#000000;fillColor=#7daee3;" parent="1" vertex="1">
                    <mxGeometry x="350" y="600" width="60" height="20" as="geometry"/>
                </mxCell>
                <mxCell id="81" value="" style="strokeWidth=1;shadow=0;dashed=0;align=center;html=1;shape=mxgraph.mockup.forms.comboBox;strokeColor=#999999;fillColor=#ddeeff;align=left;fillColor2=#aaddff;mainText=;fontColor=#666666;fontSize=17;spacingLeft=3;labelBackgroundColor=none;" parent="1" vertex="1">
                    <mxGeometry x="430" y="600" width="30" height="20" as="geometry"/>
                </mxCell>
                <mxCell id="82" value="Date" style="rounded=0;whiteSpace=wrap;html=1;labelBackgroundColor=none;fontColor=#000000;fillColor=#7daee3;" parent="1" vertex="1">
                    <mxGeometry x="350" y="640" width="60" height="20" as="geometry"/>
                </mxCell>
                <mxCell id="83" value="" style="rounded=0;whiteSpace=wrap;html=1;labelBackgroundColor=none;fontColor=#000000;fillColor=#7daee3;" parent="1" vertex="1">
                    <mxGeometry x="435" y="640" width="20" height="20" as="geometry"/>
                </mxCell>
                <mxCell id="84" value="Filter" style="rounded=0;whiteSpace=wrap;html=1;labelBackgroundColor=none;fontColor=#000000;fillColor=#7daee3;" parent="1" vertex="1">
                    <mxGeometry x="380" y="710" width="60" height="20" as="geometry"/>
                </mxCell>
                <mxCell id="85" value="" style="verticalLabelPosition=bottom;verticalAlign=top;html=1;shadow=0;dashed=0;strokeWidth=1;shape=mxgraph.android.phone2;strokeColor=#c0c0c0;" parent="1" vertex="1">
                    <mxGeometry x="590" y="10" width="200" height="390" as="geometry"/>
                </mxCell>
                <mxCell id="86" value="" style="strokeWidth=1;html=1;shadow=0;dashed=0;shape=mxgraph.android.action_bar;fillColor=#1A1A1A;strokeColor=#c0c0c0;strokeWidth=2;fontColor=#FFFFFF;whiteSpace=wrap;" parent="1" vertex="1">
                    <mxGeometry x="597.5" y="40" width="185" height="30" as="geometry"/>
                </mxCell>
                <mxCell id="87" value="" style="rounded=0;whiteSpace=wrap;html=1;fillColor=#6d8764;fontColor=#ffffff;strokeColor=#3A5431;" parent="1" vertex="1">
                    <mxGeometry x="600" y="70" width="180" height="290" as="geometry"/>
                </mxCell>
                <mxCell id="94" value="Image\&lt;br&gt;Video" style="rounded=0;whiteSpace=wrap;html=1;" parent="1" vertex="1">
                    <mxGeometry x="610" y="80" width="70" height="100" as="geometry"/>
                </mxCell>
                <mxCell id="95" value="Description" style="rounded=0;whiteSpace=wrap;html=1;fillColor=#756e7c;" parent="1" vertex="1">
                    <mxGeometry x="700" y="80.14" width="70" height="100" as="geometry"/>
                </mxCell>
                <mxCell id="96" value="Grade" style="rounded=0;whiteSpace=wrap;html=1;labelBackgroundColor=none;fontColor=#000000;fillColor=#7daee3;" parent="1" vertex="1">
                    <mxGeometry x="615" y="201" width="60" height="20" as="geometry"/>
                </mxCell>
                <mxCell id="97" value="Location" style="rounded=0;whiteSpace=wrap;html=1;labelBackgroundColor=none;fontColor=#000000;fillColor=#7daee3;" parent="1" vertex="1">
                    <mxGeometry x="615" y="230" width="60" height="20" as="geometry"/>
                </mxCell>
                <mxCell id="98" value="Style" style="rounded=0;whiteSpace=wrap;html=1;labelBackgroundColor=none;fontColor=#000000;fillColor=#7daee3;" parent="1" vertex="1">
                    <mxGeometry x="615" y="265" width="60" height="20" as="geometry"/>
                </mxCell>
                <mxCell id="99" value="Date" style="rounded=0;whiteSpace=wrap;html=1;labelBackgroundColor=none;fontColor=#000000;fillColor=#7daee3;" parent="1" vertex="1">
                    <mxGeometry x="615" y="300" width="60" height="20" as="geometry"/>
                </mxCell>
                <mxCell id="101" value="Location" style="rounded=0;whiteSpace=wrap;html=1;labelBackgroundColor=none;fontColor=#000000;fillColor=#7daee3;" parent="1" vertex="1">
                    <mxGeometry x="700" y="221" width="60" height="20" as="geometry"/>
                </mxCell>
                <mxCell id="102" value="" style="verticalLabelPosition=bottom;verticalAlign=top;html=1;shadow=0;dashed=0;strokeWidth=1;shape=mxgraph.android.progressScrubberPressed;dx=0.3;fillColor=#33b5e5;labelBackgroundColor=none;fontColor=#000000;" parent="1" vertex="1">
                    <mxGeometry x="700" y="210" width="60" height="11" as="geometry"/>
                </mxCell>
                <mxCell id="103" value="Slab" style="html=1;shadow=0;dashed=0;shape=mxgraph.bootstrap.radioButton2;labelPosition=right;verticalLabelPosition=middle;align=left;verticalAlign=middle;gradientColor=#DEDEDE;fillColor=#EDEDED;checked=0;spacing=5;checkedFill=#0085FC;checkedStroke=#ffffff;labelBackgroundColor=none;fontColor=#000000;" parent="1" vertex="1">
                    <mxGeometry x="685" y="270" width="10" height="10" as="geometry"/>
                </mxCell>
                <mxCell id="104" value="Overhang" style="html=1;shadow=0;dashed=0;shape=mxgraph.bootstrap.radioButton2;labelPosition=right;verticalLabelPosition=middle;align=left;verticalAlign=middle;gradientColor=#DEDEDE;fillColor=#EDEDED;checked=0;spacing=5;checkedFill=#0085FC;checkedStroke=#ffffff;labelBackgroundColor=none;fontColor=#000000;" parent="1" vertex="1">
                    <mxGeometry x="685" y="260" width="10" height="10" as="geometry"/>
                </mxCell>
                <mxCell id="105" value="Vert" style="html=1;shadow=0;dashed=0;shape=mxgraph.bootstrap.radioButton2;labelPosition=right;verticalLabelPosition=middle;align=left;verticalAlign=middle;gradientColor=#DEDEDE;fillColor=#EDEDED;checked=0;strokeColor=#D0D0D0;spacing=5;fontColor=#000000;checkedFill=#0085FC;checkedStroke=#ffffff;labelBackgroundColor=none;" parent="1" vertex="1">
                    <mxGeometry x="685" y="280" width="10" height="10" as="geometry"/>
                </mxCell>
                <mxCell id="112" value="Date" style="rounded=0;whiteSpace=wrap;html=1;labelBackgroundColor=none;fontColor=#000000;fillColor=#7daee3;" parent="1" vertex="1">
                    <mxGeometry x="700" y="300" width="60" height="20" as="geometry"/>
                </mxCell>
                <mxCell id="114" value="Add Climb" style="rounded=0;whiteSpace=wrap;html=1;labelBackgroundColor=none;fontColor=#000000;fillColor=#7daee3;" parent="1" vertex="1">
                    <mxGeometry x="660" y="340" width="60" height="20" as="geometry"/>
                </mxCell>
            </root>
        </mxGraphModel>
    </diagram>
</mxfile>